<svg id="Layer_1" data-name="Layer 1" xmlns="http://www.w3.org/2000/svg" viewBox="0 0 10 10"><defs><style>.cls-1{fill:#193669;}.cls-2{fill:#ff4041;}</style></defs><path class="cls-1" d="M5,10a4.9,4.9,0,0,1-1.93-.39A5,5,0,0,1,.44,6.93a5,5,0,0,1,0-3.86A5,5,0,0,1,3.07.44a5,5,0,0,1,3.86,0A5,5,0,0,1,9.56,3.07a5,5,0,0,1,0,3.86A5,5,0,0,1,6.93,9.56,4.9,4.9,0,0,1,5,10ZM5,.54A4.46,4.46,0,1,0,9.46,5,4.46,4.46,0,0,0,5,.54Z"/><path id="rect9346" class="cls-2" d="M3.09,3.16a.75.75,0,0,0-.42.13L5,4.84,7.32,3.29a.74.74,0,0,0-.41-.13ZM5,5.27l-.58-.38L2.7,6.4l-.18.15a.69.69,0,0,0,.57.29H6.91a.72.72,0,0,0,.57-.28L5.57,4.89Zm2.56-1.7L5.89,4.68l1.72,1.5V3.84A.6.6,0,0,0,7.55,3.57Zm-5.1,0a.58.58,0,0,0-.06.26V6.16h0L4.1,4.68Z"/></svg>