<svg id="Layer_1" data-name="Layer 1" xmlns="http://www.w3.org/2000/svg" viewBox="0 0 10 10"><defs><style>.cls-1{fill:#193669;}.cls-2{fill:#ff4041;}</style></defs><path class="cls-1" d="M5,10a4.9,4.9,0,0,1-1.93-.39A5,5,0,0,1,.44,6.93a5,5,0,0,1,0-3.86A5,5,0,0,1,3.07.44a5,5,0,0,1,3.86,0A5,5,0,0,1,9.56,3.07a5,5,0,0,1,0,3.86A5,5,0,0,1,6.93,9.56,4.9,4.9,0,0,1,5,10ZM5,.54A4.46,4.46,0,1,0,9.46,5,4.46,4.46,0,0,0,5,.54Z"/><path id="path2232" class="cls-2" d="M6.07,7.4a2.59,2.59,0,0,0,.53-.2c.05,0,.06,0,0-.06S5.58,6.2,5.57,6.21a.91.91,0,0,0,0,.12c0,.14,0,.17-.13.17s-.1,0-.16-.14l-.1-.15A1.18,1.18,0,0,1,5,6l-.15-.25c-.1-.16-.22-.35-.26-.43a1.16,1.16,0,0,0-.11-.16L4.42,5a1.27,1.27,0,0,0-.14-.22l-.14-.23A1.62,1.62,0,0,0,4,4.4a1.37,1.37,0,0,1-.16-.33s0-.05,0-.09,0,0,.21,0,.1,0,.11,0-.36-1.4-.37-1.41A3.57,3.57,0,0,0,3.43,3l-.08.1a.75.75,0,0,0-.14.17.57.57,0,0,0-.08.26,3.69,3.69,0,0,0,.3,1.66,3,3,0,0,0,.28.55.93.93,0,0,1,.11.19,4,4,0,0,0,.87,1,5.53,5.53,0,0,0,.74.48.7.7,0,0,0,.64,0Zm.76-.51c.06-.16.06-.17,0-.19L6,5.93s0,0-.2.07-.17.09-.15.11l1.11.95a.91.91,0,0,0,.08-.17Zm-2.31-3,.13-.1c0-.09-.3-1.18-.3-1.19a2.47,2.47,0,0,0-.38,0l.37,1.4c0,.08,0,.08.18-.06Z"/></svg>