<svg id="Layer_1" data-name="Layer 1" xmlns="http://www.w3.org/2000/svg" viewBox="0 0 512 512"><defs><style>.cls-1{stroke:#000;stroke-linecap:round;stroke-linejoin:round;stroke-width:1.5px;}.cls-2{fill:#f9e92f;}.cls-3{fill:#e42528;}</style></defs><path d="M203.49,105.06a4.86,4.86,0,0,1-1.16,4.74c-8.88,9.19-42.73,48.73-.89,79,40.84,29.53,80.42.84,92.33-18.44a5.8,5.8,0,1,1,9.57,6.53c-10.71,14.15-53.9,63.33-109.94,21.67-53.24-39.58-13.66-81.87,2.23-95.75a4.86,4.86,0,0,1,7.86,2.28"/><path d="M227.27,52.73s33.87-18.94,35,4.59c0,0-5.4,26.56-9.82,41.41a4.81,4.81,0,0,0,3.72,6.11l33.66,6.35A32.46,32.46,0,0,1,310,124l30.76,42.18a4.94,4.94,0,0,0,4.94,1.94L359,165.51a4,4,0,0,1,2.74,7.3l-16.78,9.73a12.86,12.86,0,0,1-16.64-3.27l-28.59-37.09A26.48,26.48,0,0,0,281.46,132c-15-1.54-41.29-4.62-55.06-8.49a10.68,10.68,0,0,1-7.77-11.06l2.58-35.27a4.33,4.33,0,0,0-4.05-4.64l-6-.38a16.28,16.28,0,0,0-13.25,5.51l-24.16,27.49a6.25,6.25,0,0,1-9.55-8.07l26.84-33a18,18,0,0,1,10.48-6.3Z"/><path d="M238,20.14c0,10.85,9.6,19.64,21.43,19.64S280.84,31,280.84,20.14,271.25.5,259.41.5,238,9.29,238,20.14"/><path class="cls-1" d="M64.23,120.84c4.21-10.19,17.5-41.27,30.26-59,4.28-5.92,8.45-10.4,12.46-12.16l.11,0,.1,0a29.82,29.82,0,0,1,4.1-.26c3.77,0,9.52.6,14.43,3.75s8.86,9,8.83,18.92a51.58,51.58,0,0,1-1.11,10.19c-5.37,26.4-12.51,43.07-16.14,50.42a13.75,13.75,0,0,0-1.11,9l4.15,19.22a14.25,14.25,0,0,0,4.46,7.63L252.15,281.93l8-2.66L382.08,173a15,15,0,0,1,8.91-3.69c.46,0,.93,0,1.41,0a17.4,17.4,0,0,1,2.27.14l.36,0a2.82,2.82,0,0,0,2.77-2.62l2.26-31.67c0-.36,0-.71,0-1.08a15.18,15.18,0,0,0-1.18-5.83L380.41,84.38a18.17,18.17,0,0,1-1.42-7,17.23,17.23,0,0,1,.36-3.57,38.5,38.5,0,0,1,5.5-14c3.09-4.51,7.84-8.09,14.72-8.08A26,26,0,0,1,408,53.23a18.94,18.94,0,0,1,10.62,9.12l28.34,53.75a19.07,19.07,0,0,1,2.19,8.85V231.62a16.58,16.58,0,0,1-4.87,11.74l-91.49,91.49a10.15,10.15,0,0,0-2.95,7.12V442.2H167.89L164,345.36a10.67,10.67,0,0,0-3.06-7L70.26,246A18.46,18.46,0,0,1,65,233.46L62.88,128v-.36a17.69,17.69,0,0,1,1.36-6.81l.8.33.79.33a16.41,16.41,0,0,0-1.22,6.15V128L66.7,233.42a16.74,16.74,0,0,0,4.79,11.4l90.71,92.29a12.34,12.34,0,0,1,3.54,8.19l3.81,95.17H348.09V342a11.76,11.76,0,0,1,3.46-8.34L443,242.14a14.89,14.89,0,0,0,4.36-10.52V125a17.34,17.34,0,0,0-2-8L417.07,63.15a17.23,17.23,0,0,0-9.65-8.28,24.53,24.53,0,0,0-7.85-1.44c-6.25,0-10.38,3.14-13.29,7.33A37,37,0,0,0,381,74.12a16,16,0,0,0-.32,3.23A16.46,16.46,0,0,0,382,83.71l18.51,43.82a16.71,16.71,0,0,1,1.32,6.5c0,.4,0,.8-.05,1.2l-2.26,31.68a4.54,4.54,0,0,1-4.49,4.22l-.59,0a15.2,15.2,0,0,0-2-.13c-.44,0-.88,0-1.31.05a13.14,13.14,0,0,0-7.87,3.27L261,280.81l-9.25,3.08L123.62,169.73a15.85,15.85,0,0,1-5-8.56L114.47,142a15.27,15.27,0,0,1-.35-3.29,15.52,15.52,0,0,1,1.59-6.83c3.58-7.23,10.67-23.76,16-50A49.91,49.91,0,0,0,132.79,72c0-9.49-3.6-14.57-8-17.46s-9.9-3.48-13.49-3.48c-1.16,0-2.13.06-2.8.12s-1,.12-1,.12l-.14-.85.34.79C104.21,52.7,100.07,57,95.9,62.81A182.66,182.66,0,0,0,83.44,83.55c-8,15.14-14.82,31.19-17.62,38l-.79-.33ZM275.49,331.13v-.87a164.1,164.1,0,0,0-19.13,1.3,66.79,66.79,0,0,0-13.87,3.11c-4,1.51-7.13,3.48-8,6.56l0,.09L231,441.63h44.23l1.17-111.37h-.87v.87h-.87l-1.14,108.77H232.75l3.42-98.4-.87,0,.84.23c.54-2.09,3.13-4,7-5.39,5.7-2.13,13.83-3.23,20.5-3.77,3.33-.27,6.31-.4,8.45-.47s3.43-.07,3.44-.07v-.86h0ZM124.19,168.22a45.45,45.45,0,0,0-12.47,2.13,24.16,24.16,0,0,0-9,5A14.82,14.82,0,0,0,98,185.32c0,.41,0,.83,0,1.26a17,17,0,0,0,5.66,12.56l59.95,54.56,1.17-1.28-60-54.55a15.35,15.35,0,0,1-5.09-11.29c0-.37,0-.75,0-1.13a13.06,13.06,0,0,1,4.22-8.81c3.45-3.25,8.53-5,12.75-5.81a45.26,45.26,0,0,1,5.35-.76c1.36-.11,2.17-.12,2.17-.12Zm270.17,2.86.37.09h0a20.88,20.88,0,0,1,8.61,36L349,254.7,350.1,256l54.37-47.57a22.62,22.62,0,0,0-9.33-38.95h0l-.38-.09Z"/><polyline class="cls-1" points="235.88 304.43 186.52 304.43 186.52 306.16 235.88 306.16"/><polyline class="cls-1" points="333.46 307.3 284.1 307.3 284.1 309.03 333.46 309.03"/><polyline class="cls-1" points="275.45 291.62 311.05 262.92 309.95 261.57 274.37 290.27"/><polyline class="cls-1" points="201.98 349.02 237.57 320.32 236.48 318.97 200.9 347.68"/><polyline class="cls-1" points="276.63 317.99 309.92 347.84 311.08 346.55 277.78 316.7"/><polyline class="cls-1" points="203.73 263.46 237.02 293.31 238.18 292.02 204.88 262.17"/><rect x="255.71" y="322.96" width="3.19" height="9.31"/><path class="cls-2" d="M262.28,275.45s-16.07,6.31-15.49,21.81-1.73,19.52,5.73,24.11c6.55,4,14.42,1,17.8-13.76a16.24,16.24,0,0,0-1.52-11.17c-2.08-3.94-4.87-10.76-6.52-21"/><path d="M262.28,275.45l-.31-.81a30.57,30.57,0,0,0-8,5.07c-4,3.48-8.06,9-8.06,16.74l0,.86.87-.05-.87,0c.09,2.28.1,4.32.11,6.14s0,3.65,0,5.18c0,3.35.1,5.84.94,8s2.46,3.86,5.13,5.5a11.07,11.07,0,0,0,5.77,1.75,10.35,10.35,0,0,0,7.85-3.91c2.3-2.64,4.2-6.61,5.48-12.15a17,17,0,0,0,.41-3.68,17.46,17.46,0,0,0-2-8.08c-2-3.87-4.79-10.59-6.42-20.73l-.18-1.06-1,.39.31.81-.85.13c1.66,10.33,4.48,17.24,6.6,21.26a15.67,15.67,0,0,1,1.82,7.28,14.78,14.78,0,0,1-.37,3.3c-1.23,5.34-3.05,9.06-5.09,11.39a8.64,8.64,0,0,1-6.55,3.32,9.25,9.25,0,0,1-4.86-1.5c-2.51-1.55-3.73-2.91-4.43-4.65s-.83-4.06-.83-7.37c0-1.5,0-3.22,0-5.18s0-3.89-.1-6.2v0l0-.76c0-7.14,3.7-12.14,7.46-15.44a30,30,0,0,1,5.19-3.62c.7-.39,1.29-.68,1.7-.86l.62-.28-.32-.8-.85.13Z"/><path class="cls-3" d="M183.65,162.94c-6.17-15.63,29.93-46.92,42.7-57.36a5.81,5.81,0,0,0,1.41-7.3c-3-5.42-4-13.46-4.26-20.3a34.46,34.46,0,0,1,9.22-24.76c21.74-23.31,33,2.38,33,2.38,4.33,25.14-9,40.13-15.8,46a5.8,5.8,0,0,0-1.35,7.12c4.81,9,15.38,30.83,17.15,50.23,1.53,16.85-5.11,22.46-9.7,24.33a2.79,2.79,0,0,1-3.79-2.8c2.35-34-4.58-50.86-10.52-58.9a8.7,8.7,0,0,0-13.28-.86L198,152.4a22.09,22.09,0,0,0-5.8,11.35l-1.11,6.08c-8.6,6.32-7.45-6.89-7.45-6.89M259.41,57.32s-2.29-18.94-18.36-3.44S242.2,90,242.2,90c17.21-.57,17.21-32.72,17.21-32.72"/><path d="M42.32,511.5H34.16a1.93,1.93,0,0,1-1.93-1.41l-2.46-6.33H14.11l-2.46,6.33a2.06,2.06,0,0,1-2,1.41H1.5c-.94,0-1.23-.47-.82-1.41l14.9-38a1.93,1.93,0,0,1,1.93-1.4h8.8a2.06,2.06,0,0,1,2,1.4l14.9,38C43.55,511,43.25,511.5,42.32,511.5ZM27.54,498.13l-5.63-14.31-5.57,14.31Z"/><path d="M86.29,478.43v25.33q0,7.74-7.74,7.74H50.05a1.24,1.24,0,0,1-1.4-1.41v-38a1.24,1.24,0,0,1,1.4-1.4h28.5Q86.29,470.69,86.29,478.43Zm-11.61.7a2.48,2.48,0,0,0-2.81-2.81H60.26v29.55H71.87a2.48,2.48,0,0,0,2.81-2.81Z"/><path d="M131.56,478.43v7.74q0,7.74-7.74,7.74H105.53v16.18a1.25,1.25,0,0,1-1.41,1.41h-8.8a1.25,1.25,0,0,1-1.41-1.41v-38a1.24,1.24,0,0,1,1.41-1.4h28.5Q131.56,470.69,131.56,478.43Zm-11.61.7a2.48,2.48,0,0,0-2.81-2.81H105.53v12h11.61a2.49,2.49,0,0,0,2.81-2.82Z"/><path d="M175.31,472.09v38a1.25,1.25,0,0,1-1.41,1.41h-8.8a1.25,1.25,0,0,1-1.41-1.41V493.91H149.62v16.18a1.25,1.25,0,0,1-1.41,1.41h-8.79a1.25,1.25,0,0,1-1.41-1.41v-38a1.24,1.24,0,0,1,1.41-1.4h8.79a1.24,1.24,0,0,1,1.41,1.4v16.19h14.07V472.09a1.25,1.25,0,0,1,1.41-1.4h8.8A1.24,1.24,0,0,1,175.31,472.09Z"/><path d="M222.45,511.5H214.3a2,2,0,0,1-1.94-1.41l-2.46-6.33H194.24l-2.46,6.33a2.06,2.06,0,0,1-2,1.41h-8.15c-.94,0-1.23-.47-.83-1.41l14.9-38a1.94,1.94,0,0,1,1.93-1.4h8.8a2.05,2.05,0,0,1,2,1.4l14.9,38C223.68,511,223.39,511.5,222.45,511.5Zm-14.78-13.37L202,483.82l-5.57,14.31Z"/><path d="M283.73,472.09v31.67q0,7.74-7.74,7.74H253.82q-7.74,0-7.74-7.74V472.09a1.24,1.24,0,0,1,1.41-1.4h8.79a1.24,1.24,0,0,1,1.41,1.4v31a2.49,2.49,0,0,0,2.81,2.81h8.8a2.49,2.49,0,0,0,2.82-2.81v-31a1.24,1.24,0,0,1,1.4-1.4h8.8A1.24,1.24,0,0,1,283.73,472.09Z"/><path d="M329.05,492.5v11.26q0,7.74-7.74,7.74H298.79q-7.74,0-7.74-7.74V478.43q0-7.74,7.74-7.74h26a1.24,1.24,0,0,1,1.41,1.4v2.82a1.25,1.25,0,0,1-1.41,1.41H305.48a2.49,2.49,0,0,0-2.82,2.81v23.93a2.49,2.49,0,0,0,2.82,2.81h9.14a2.49,2.49,0,0,0,2.82-2.81V492.5a1.25,1.25,0,0,1,1.41-1.41h8.79A1.25,1.25,0,0,1,329.05,492.5Z"/><path d="M374.44,511.5h-8.15a1.94,1.94,0,0,1-1.94-1.41l-2.46-6.33H346.23l-2.46,6.33a2.06,2.06,0,0,1-2,1.41h-8.15c-.93,0-1.23-.47-.82-1.41l14.9-38a1.93,1.93,0,0,1,1.93-1.4h8.8a2.05,2.05,0,0,1,2,1.4l14.9,38C375.67,511,375.38,511.5,374.44,511.5Zm-14.78-13.37L354,483.82l-5.57,14.31Z"/><path d="M418.06,472.09v38a1.24,1.24,0,0,1-1.4,1.41h-8.8a2.25,2.25,0,0,1-2.11-1.41l-13.37-26.8v26.8A1.25,1.25,0,0,1,391,511.5h-8.79a1.25,1.25,0,0,1-1.41-1.41v-38a1.24,1.24,0,0,1,1.41-1.4H391a2.26,2.26,0,0,1,2.11,1.4l13.37,26.8v-26.8a1.24,1.24,0,0,1,1.41-1.4h8.8A1.24,1.24,0,0,1,418.06,472.09Z"/><path d="M463.92,478.43v25.33q0,7.74-7.74,7.74h-28.5a1.25,1.25,0,0,1-1.41-1.41v-38a1.24,1.24,0,0,1,1.41-1.4h28.5Q463.92,470.69,463.92,478.43Zm-11.61.7a2.49,2.49,0,0,0-2.82-2.81H437.88v29.55h11.61a2.49,2.49,0,0,0,2.82-2.81Z"/><path d="M510.48,511.5h-8.16a1.93,1.93,0,0,1-1.93-1.41l-2.46-6.33H482.27l-2.46,6.33a2.06,2.06,0,0,1-2,1.41h-8.15c-.93,0-1.23-.47-.82-1.41l14.9-38a1.93,1.93,0,0,1,1.93-1.4h8.8a2.06,2.06,0,0,1,2,1.4l14.9,38C511.71,511,511.41,511.5,510.48,511.5ZM495.7,498.13l-5.63-14.31-5.57,14.31Z"/></svg>