<svg id="Layer_1" data-name="Layer 1" xmlns="http://www.w3.org/2000/svg" viewBox="0 0 10 10"><defs><style>.cls-1{fill:#ff4041;}.cls-2{fill:#193669;}.cls-3{fill:#e5cb10;}.cls-4{fill:#1353ba;}</style></defs><path class="cls-1" d="M7.11,2.35C7,2.44,7,2.67,7,2.82s-.12.27-.12.4a.21.21,0,0,0,.18.23.73.73,0,0,0,1.42.06c.19,0,.17-.28.18-.43a.23.23,0,0,0-.13-.21.64.64,0,0,0-1-.59C7.41,2.37,7.23,2.23,7.11,2.35Z"/><path class="cls-1" d="M1.26,3.45a.73.73,0,0,0,1.42.06c.19,0,.17-.28.18-.43a.23.23,0,0,0-.13-.21.63.63,0,0,0-1-.55c-.2,0-.46,0-.46.25a2.09,2.09,0,0,0,0,.25c-.16.05-.13.27-.13.4A.21.21,0,0,0,1.26,3.45Z"/><path class="cls-2" d="M8.45,4.58c-.32,0-1.34-.09-1.61.12-1.36,1.2-2.32,1.2-3.68,0a1.2,1.2,0,0,0-.42-.12H1.55C.42,4.62.82,6.06.75,6.77a.22.22,0,0,0,.44,0A8.93,8.93,0,0,1,1.3,5.51c.06,0,.11,4,.11,4a.35.35,0,0,0,.36.36.36.36,0,0,0,.36-.36s.05-2.17.11-2.17.11,2.17.11,2.17a.36.36,0,0,0,.36.36.37.37,0,0,0,.36-.38V5.71a.12.12,0,0,1,.18-.1A3.3,3.3,0,0,0,5,6.22a3.3,3.3,0,0,0,1.75-.61.12.12,0,0,1,.18.1V9.49a.37.37,0,0,0,.62.28c.2-.06.09-2.27.21-2.43.06,0,.11,2.17.11,2.17a.36.36,0,0,0,.72,0s.05-4,.11-4a8.93,8.93,0,0,1,.11,1.26.22.22,0,0,0,.44,0V5.38A.8.8,0,0,0,8.45,4.58Z"/><path class="cls-3" d="M5,1.55A.71.71,0,0,0,5,.13.71.71,0,0,0,5,1.55Z"/><path class="cls-4" d="M3,1.58a.48.48,0,0,0,0-1A.48.48,0,0,0,3,1.58Z"/><path class="cls-4" d="M6.89,1.58a.48.48,0,0,0,0-1A.48.48,0,0,0,6.89,1.58Z"/></svg>