<svg id="Layer_1" data-name="Layer 1" xmlns="http://www.w3.org/2000/svg" viewBox="0 0 10 10"><defs><style>.cls-1{fill:#193669;}.cls-2{fill:#ff4041;}</style></defs><path class="cls-1" d="M5,10a4.9,4.9,0,0,1-1.93-.39A5,5,0,0,1,.44,6.93a5,5,0,0,1,0-3.86A5,5,0,0,1,3.07.44a5,5,0,0,1,3.86,0A5,5,0,0,1,9.56,3.07a5,5,0,0,1,0,3.86A5,5,0,0,1,6.93,9.56,4.9,4.9,0,0,1,5,10ZM5,.54A4.46,4.46,0,1,0,9.46,5,4.46,4.46,0,0,0,5,.54Z"/><path class="cls-2" d="M5,2.54A1.78,1.78,0,0,0,3.22,4.32c0,1.22,1.59,3,1.66,3.09a.16.16,0,0,0,.24,0c.07-.08,1.66-1.87,1.66-3.09A1.78,1.78,0,0,0,5,2.54Zm.06,2.68a.9.9,0,0,1-.12-1.79A.9.9,0,0,1,5.06,5.22Z"/></svg>