<svg id="Layer_1" data-name="Layer 1" xmlns="http://www.w3.org/2000/svg" viewBox="0 0 50 50"><defs><style>.cls-1{opacity:0.15;}.cls-2{fill:#ce0b0b;}</style></defs><g class="cls-1"><path class="cls-2" d="M35,12.6A14.41,14.41,0,0,0,24.46,8.5a14.53,14.53,0,0,0-8.61,25.89A7.22,7.22,0,0,1,18.48,40v.2a1.27,1.27,0,0,0,1.26,1.26H30.06a1.27,1.27,0,0,0,1.26-1.26V40a7.53,7.53,0,0,1,2.82-5.79A14.53,14.53,0,0,0,39.43,23,14.38,14.38,0,0,0,35,12.6ZM21.39,27.77H19.86a1.13,1.13,0,0,1,0-2.25h.41a1.12,1.12,0,0,1,1.12,1.13ZM26.08,39H23.92V30.3h2.16Zm6.45-6.67A10.12,10.12,0,0,0,28.86,39h-.25V30.3h1.53a3.66,3.66,0,0,0,0-7.31h-.41a3.66,3.66,0,0,0-3.65,3.66v1.12H23.92V26.65A3.66,3.66,0,0,0,20.27,23h-.41a3.66,3.66,0,0,0,0,7.31h1.53V39H21a9.57,9.57,0,0,0-3.53-6.55A12,12,0,0,1,24.54,11a12,12,0,0,1,8,21.27Zm-3.92-4.52V26.65a1.12,1.12,0,0,1,1.12-1.13h.41a1.13,1.13,0,0,1,0,2.25Z"/><path class="cls-2" d="M29.2,42.72H20.79a1.26,1.26,0,0,0,0,2.52H29.2a1.26,1.26,0,1,0,0-2.52Z"/><path class="cls-2" d="M27.44,46.48H22.56a1.26,1.26,0,0,0,0,2.52h4.88a1.26,1.26,0,0,0,0-2.52Z"/><path class="cls-2" d="M25,6.71a1.26,1.26,0,0,0,1.26-1.26V2.26a1.26,1.26,0,0,0-2.52,0V5.45A1.26,1.26,0,0,0,25,6.71Z"/><path class="cls-2" d="M37.73,11.33a1.24,1.24,0,0,0,.93-.42l2.13-2.36a1.26,1.26,0,1,0-1.87-1.69L36.79,9.22A1.27,1.27,0,0,0,36.88,11,1.28,1.28,0,0,0,37.73,11.33Z"/><path class="cls-2" d="M45.68,21.55H42.5a1.27,1.27,0,0,0,0,2.53h3.18a1.27,1.27,0,0,0,0-2.53Z"/><path class="cls-2" d="M40.64,36l-2.57-1.87a1.26,1.26,0,1,0-1.49,2l2.58,1.87a1.26,1.26,0,1,0,1.48-2Z"/><path class="cls-2" d="M11.34,10.91a1.24,1.24,0,0,0,.93.42,1.28,1.28,0,0,0,.85-.32,1.27,1.27,0,0,0,.09-1.79L11.08,6.86A1.26,1.26,0,1,0,9.21,8.55Z"/><path class="cls-2" d="M7.5,21.55H4.32a1.27,1.27,0,0,0,0,2.53H7.5a1.27,1.27,0,0,0,0-2.53Z"/><path class="cls-2" d="M11.93,34.14,9.36,36a1.26,1.26,0,0,0,1.48,2l2.58-1.87a1.26,1.26,0,1,0-1.49-2Z"/></g></svg>