<svg id="Layer_1" data-name="Layer 1" xmlns="http://www.w3.org/2000/svg" viewBox="0 0 10 10"><defs><style>.cls-1{fill:#1353ba;}.cls-2{fill:#e5cb10;}.cls-3{fill:#193669;}.cls-4{fill:#ff4041;}</style></defs><path class="cls-1" d="M4.8,5.72a1.54,1.54,0,0,1-1-.61.21.21,0,0,1,0-.28,1.5,1.5,0,0,1,1-.61,1.47,1.47,0,0,1,1,.61.24.24,0,0,1,0,.28A1.48,1.48,0,0,1,4.8,5.72ZM4.27,5A.68.68,0,0,0,5.34,5,.67.67,0,0,0,4.27,5Z"/><path class="cls-1" d="M5,5c0,.16-.29.16-.29,0S5,4.81,5,5Z"/><path class="cls-2" d="M7.87,7.29,7.11,8,6.77,7.7l.76-.76Z"/><path class="cls-3" d="M9.56,9.75h0a.54.54,0,0,1-.75,0L7.28,8.21,8,7.45,9.56,9A.54.54,0,0,1,9.56,9.75Z"/><path class="cls-4" d="M6.41,3.35a2.28,2.28,0,1,0-.26,3.46h0A2.3,2.3,0,0,0,6.41,3.35ZM6.14,5.78A1.56,1.56,0,1,1,5.9,3.85a1.56,1.56,0,0,1,.24,1.93Z"/><path class="cls-3" d="M7.16,7l-.35.36L6.4,6.92a2.38,2.38,0,0,0,.35-.36Z"/><path class="cls-3" d="M7.68.32A.36.36,0,0,0,7.41.2H1.52a.4.4,0,0,0-.39.39V8.14a.39.39,0,0,0,.39.39H7.26l-.74-.74c-.11-.11.06-.22.12-.29l-.43-.44a2.51,2.51,0,0,1-2.6.12H2a.11.11,0,0,1-.12-.11A.12.12,0,0,1,2,7H3.25a2.5,2.5,0,0,1-.8-1.12H2A.12.12,0,1,1,2,5.6h.37a2.6,2.6,0,0,1,0-1.11H2a.12.12,0,1,1,0-.24h.4a2.47,2.47,0,0,1,.68-1.11H2A.12.12,0,1,1,2,2.9H3.37a2.48,2.48,0,0,1,2.87,0h.69a.12.12,0,0,1,0,.24h-.4a2.51,2.51,0,0,1,.36,3.22l.44.44c.07-.06.18-.21.28-.11l.19.19V.59A.36.36,0,0,0,7.68.32ZM6.93,1.79H2a.12.12,0,0,1,0-.24H6.93A.12.12,0,0,1,6.93,1.79Z"/></svg>