<svg id="Layer_1" data-name="Layer 1" xmlns="http://www.w3.org/2000/svg" viewBox="0 0 10 10"><defs><style>.cls-1{fill:#ff4041;}.cls-1,.cls-2{fill-rule:evenodd;}.cls-2{fill:#193669;}</style></defs><path class="cls-1" d="M2,.25A.78.78,0,1,1,1.19,1h0A.78.78,0,0,1,2,.25H2"/><path class="cls-1" d="M7.87,6.91a.68.68,0,1,1-.68.68h0a.67.67,0,0,1,.68-.68"/><path class="cls-1" d="M2.48,6.91a.68.68,0,1,1-.68.68h0a.67.67,0,0,1,.68-.68"/><path class="cls-2" d="M2.05,8.37a.8.8,0,0,0-.43.17A1.32,1.32,0,0,0,1.25,9a1.68,1.68,0,0,0-.16.65v.08h.58V9.64a.8.8,0,0,1,.06-.3l.08-.13v.54H3.13V9.21l.08.13a.8.8,0,0,1,.06.3v.11h0V9.62a2.63,2.63,0,0,1,.06-.39,1.49,1.49,0,0,1,.15-.4l0,0a.88.88,0,0,0-.67-.42c-.23,0-.62,0-.85,0"/><path class="cls-1" d="M5.17,6.7a.73.73,0,1,1-.72.73h0a.73.73,0,0,1,.72-.73Z"/><path class="cls-2" d="M4.72,8.26a.92.92,0,0,0-.47.19,1.45,1.45,0,0,0-.4.52,1.67,1.67,0,0,0-.16.7l0,.08H4.3V9.64a.87.87,0,0,1,.06-.32.67.67,0,0,1,.09-.14v.57h1.4V9.18A.42.42,0,0,1,6,9.32,1.14,1.14,0,0,1,6,9.64v.11h.62V9.66A1.84,1.84,0,0,0,6.49,9a1.06,1.06,0,0,0-.87-.71c-.24,0-.66,0-.9,0Z"/><path class="cls-2" d="M7.44,8.37A.8.8,0,0,0,7,8.54a.92.92,0,0,0-.23.25l0,0a2,2,0,0,1,.14.41A2.63,2.63,0,0,1,7,9.63v0a.17.17,0,0,1,0,.07h0V9.64a1.09,1.09,0,0,1,.07-.3.83.83,0,0,1,.07-.13l0,.54h1.3V9.21l.08.13a.8.8,0,0,1,.06.3v.11h.58V9.67A1.76,1.76,0,0,0,9.1,9a1,1,0,0,0-.81-.66c-.23,0-.62,0-.85,0Z"/><path class="cls-2" d="M8.55,4.93H4.25V3.86a.37.37,0,0,0,.28-.61l.83-.86a.13.13,0,0,0,0-.19.14.14,0,0,0-.19,0l-.87.92h0V1.46h4.3Zm.89,0H8.83V1.46h.61a.14.14,0,0,0,.13-.15.13.13,0,0,0-.15-.13h-3V.77s0,0,0,0A.14.14,0,0,0,6.29.62a.16.16,0,0,0-.13.15v.41H3.34a.14.14,0,0,0-.13.15.14.14,0,0,0,.15.13H4v1.6L3.54,3,3,2.16A.34.34,0,0,0,2.73,2a1.31,1.31,0,0,0-.44-.07c-.23,0-.47,0-.7,0A1.31,1.31,0,0,0,.47,3.45a5.93,5.93,0,0,0-.06.84v.08a.28.28,0,0,0,.26.15A.4.4,0,0,0,1,4.37V4.29l.07-.87a1,1,0,0,1,.07-.34.51.51,0,0,1,.09-.16v.23l0,1.36L.86,6.74a.39.39,0,0,0,.77.09L2,4.88l.31,1.75a1,1,0,0,1,.81.19v0L3,6.22,2.71,4.5l0-1.37h0L3,3.53a.3.3,0,0,0,.23.14l.7.14V4.93H3.34a.14.14,0,0,0-.13.15.14.14,0,0,0,.15.13H6.19v.63l-.64.59a1.3,1.3,0,0,1,.26.14l.37-.36v.63A.14.14,0,0,0,6.31,7a.13.13,0,0,0,.15-.13v-.6l.71.66h0l0,0a1.33,1.33,0,0,1,.19-.14l0,0-.88-.83,0,0V5.21h3a.14.14,0,1,0,0-.28"/></svg>