<svg id="Layer_1" data-name="Layer 1" xmlns="http://www.w3.org/2000/svg" viewBox="0 0 10 10"><defs><style>.cls-1{fill:#1353ba;}.cls-1,.cls-2,.cls-3,.cls-4{fill-rule:evenodd;}.cls-2{fill:#ff4041;}.cls-3{fill:#e5cb10;}.cls-4{fill:#193669;}</style></defs><path class="cls-1" d="M2.56,2.86v0H2.05a1.67,1.67,0,0,1,.05-.18l0-.11h.35s0,0,0,0,0,0,0,0,0,0,0,.06,0-.12,0-.14H2.12a.66.66,0,0,0-.05.15l0,.08v0H2a1.11,1.11,0,0,0,.26,0,1.15,1.15,0,0,0,.27,0s0,0,0,0Z"/><path class="cls-1" d="M7.47,2.77h0l0-.07s0-.07,0-.08h.35l0,.11v0a.08.08,0,0,1,0,0s0,.09,0,.11H7.44v0a.06.06,0,0,0,0,0,1.15,1.15,0,0,0,.27,0A1.11,1.11,0,0,0,8,2.9l0-.15,0-.15H7.51a.85.85,0,0,0,0,.17Z"/><path class="cls-2" d="M7.53,5.19c.06,0,0,0,.08,0h.16c.1,0,0,0,.08,0L8,5.31H8a.24.24,0,0,1,.06.09l.05.18,0,.13L8,5.87s0,0,0,.07,0,0,0,0l.1-.15s0,0,0,0,0,0,0,0a1,1,0,0,0,0-.23h0l0-.06-.06-.09A.81.81,0,0,0,8,5.22l-.07,0h0l-.06,0h0c-.05,0-.05,0-.11,0H7.62c-.06,0,0,0-.09,0v0Z"/><path class="cls-2" d="M8.45,5.58a.38.38,0,0,0,0-.16s0,0,0,0,0,0,0,0v0l0-.08h0L8.19,5l0,0L8,4.92l-.13,0h0c-.07,0,0,0-.13,0s0,0,0,0h.09l.07,0H8L8.13,5a.63.63,0,0,1,.12.11.88.88,0,0,1,.12.17v0s0,0,0,0a.2.2,0,0,0,0,.06c0,.09,0,0,0,.1a.22.22,0,0,1,0,.08Z"/><path class="cls-1" d="M8.28,2.9l0-.08c0-.06,0,0,0,0V2.7a.29.29,0,0,1,0-.09h.94c0,.07-.11.19-.2.24a.6.6,0,0,1-.24,0Zm-.1-.29a.88.88,0,0,0,.05.15l0,.09s0,.06.06.06a2.27,2.27,0,0,0,.59,0A.4.4,0,0,0,9,2.81l.08-.08h0l.06-.1s0,0,0,0h0c-.09,0-.93,0-1,0Z"/><path class="cls-1" d="M4.72,1.22c0-.11,0,0,0-.21A.32.32,0,0,1,4.86.85c.17-.09.26,0,.33,0h0l0,0A.21.21,0,0,0,5,.8.31.31,0,0,0,4.8.87a.34.34,0,0,0-.1.3l0,0Z"/><path class="cls-1" d="M4.85,7.25h.3V3.49h-.3V7.25Z"/><path class="cls-1" d="M.84,7.55a.09.09,0,0,0,0,0l0,.05h0L1,7.74l.09,0,.07,0a1.06,1.06,0,0,0,.31,0h2l.09,0,.14-.07a.49.49,0,0,0,.13-.2H.84Z"/><path class="cls-1" d="M7.69,7.55H6.23a.37.37,0,0,0,0,.11l.09.09.06,0,0,0,0,0a1,1,0,0,0,.31,0H8.59a.74.74,0,0,0,.26,0l.08,0,0,0c.08,0,0,0,.06,0l0,0h0l0,0s0,0,0,0,0,0,0-.08H7.69Z"/><path class="cls-1" d="M2.88,2.9H4.27a.88.88,0,0,1,0-.15.17.17,0,0,1,0-.07s0,0,0-.07H2.84s0,0,0,.06a.31.31,0,0,1,0,.08,1.56,1.56,0,0,0,0,.16Z"/><path class="cls-1" d="M7.11,2.9a.24.24,0,0,0,0-.09c.08-.24.06-.2,0-.2H5.75a.65.65,0,0,0,0,.14V2.9s1.27,0,1.36,0Z"/><path class="cls-1" d="M1.72,2.9s.08-.27.08-.29H.85a.07.07,0,0,0,0,.06A.45.45,0,0,0,1,2.85l.05,0a.93.93,0,0,0,.33,0c.1,0,.21,0,.3,0Z"/><path class="cls-1" d="M8.28,2.9h.43a.6.6,0,0,0,.24,0c.09-.05.21-.17.2-.24H8.21a.29.29,0,0,0,0,.09v.07s0,0,0,0l0,.08Z"/><path class="cls-1" d="M2.56,2.86s0-.08,0-.12,0,0,0-.06,0,0,0,0,0,0,0,0H2.13l0,.11a1.67,1.67,0,0,0-.05.18h.51v0Z"/><path class="cls-1" d="M7.47,2.77s0,.07,0,.09v0H8s0-.1,0-.11a.08.08,0,0,0,0,0v0l0-.11H7.52s0,.08,0,.08l0,.07h0Z"/><path class="cls-1" d="M4.86,1.71V2h.28V1.7H4.86Z"/><path class="cls-1" d="M5.2,8.15H4.89c-.13,0,0,0-.15.15l-.06.09h0l-.07.08h0l-.1.07-.1,0-.07,0-.22.09h0A.45.45,0,0,0,3.83,9a.17.17,0,0,0,0,.07c0,.18,0,.15.12.15H6.2a.55.55,0,0,0-.09-.32s0,0,0,0a.43.43,0,0,0-.19-.15l-.09,0-.11,0c-.06,0,0,0-.07,0l-.09,0c-.07,0-.07-.06-.11-.08a.72.72,0,0,1-.21-.25l0-.09Z"/><path class="cls-3" d="M5,3.2a.45.45,0,0,0,.37-.7.31.31,0,0,0-.15-.13h0a.41.41,0,0,0-.31,0c-.08,0,0,0-.12,0a.55.55,0,0,0-.14.12h0l0,0a.39.39,0,0,0-.06.28l0,.1h0v0a.52.52,0,0,0,.15.18A.42.42,0,0,0,5,3.2Z"/><path class="cls-1" d="M4.72,1.22a.3.3,0,0,0,.34.18A.31.31,0,0,0,5.25.93h0A.34.34,0,0,0,5.19.87c-.07,0-.16-.11-.33,0A.32.32,0,0,0,4.72,1c0,.17,0,.1,0,.21Z"/><path class="cls-4" d="M5.2,8.15l0,.09a.72.72,0,0,0,.21.25s0,0,.11.08l.09,0s0,0,.07,0l.11,0,.09,0a.43.43,0,0,1,.19.15s0,0,0,0a.55.55,0,0,1,.09.32H3.94c-.14,0-.17,0-.12-.15a.17.17,0,0,1,0-.07.45.45,0,0,1,.24-.25h0l.22-.09.07,0,.1,0,.1-.07h0l.07-.08h0l.06-.09c.1-.17,0-.15.15-.15Zm0-.6a1.5,1.5,0,0,1,0,.3,1.5,1.5,0,0,1-.3,0,1.5,1.5,0,0,1,0-.3h.3Zm1.08,0H9.16s0,0,0,.08,0,0,0,0l0,0h0l0,0s0,0-.06,0l0,0-.08,0a.74.74,0,0,1-.26,0H6.82a1,1,0,0,1-.31,0l0,0,0,0-.06,0-.09-.09a.37.37,0,0,1,0-.11Zm-5.39,0H3.77a.49.49,0,0,1-.13.2l-.14.07-.09,0h-2a1.06,1.06,0,0,1-.31,0L1,7.79,1,7.74.89,7.67h0l0-.05a.09.09,0,0,1,0,0ZM7.37,3.21H8s0,0,0,0,0,0,0,0l0,.06a.13.13,0,0,0,0,.06s0,0,0,0,0,.1,0,.15,0,0,0,0,0,0,0,0,0,0,0,0l.05.19s0,0,0,0a.84.84,0,0,0,0,.12l0,.16a1.24,1.24,0,0,0,0,.16s0,.13.05.18,0,0,0,0v0a.06.06,0,0,0,0,0l0,.15c0,.07.07.27.1.35l0,.16a0,0,0,0,0,0,0s0,0,0,0l.24.92a.11.11,0,0,1,0,.06l0,.13s0,0,0,.06l0,.12c0,.07,0,.13,0,.19v.07s0,0,0,0V7l0,.13s0,0,0,.06a.24.24,0,0,1,0,.08H6.26l.1-.38s0,0,0,0l0-.11s0,0,0-.06l0-.06s0,0,0-.06l.08-.32,0-.06,0-.13a.59.59,0,0,0,0-.19l0-.13.08-.31s0,0,0,0a0,0,0,0,0,0,0l0-.06s0,0,0,0l0-.15,0-.07s0,0,0-.06,0,0,0-.06L7,4.71s0,0,0-.06l0-.12s0,0,0,0l0-.13v0s0-.1,0-.13l.23-.82v0l0-.06s0,0,0,0,0-.06,0-.06Zm-2.52.28h.3V7.24h-.3V3.49Zm2.59-.63s0-.07,0-.09a.85.85,0,0,1,0-.17h.37l0,.15L8,2.9a1.11,1.11,0,0,1-.26,0,1.15,1.15,0,0,1-.27,0,.06.06,0,0,1,0,0ZM2.53,2.74s0,.09,0,.12,0,0,0,0a1.15,1.15,0,0,1-.27,0A1.11,1.11,0,0,1,2,2.9H2v0l0-.08a.66.66,0,0,1,.05-.15h.37s0,.11,0,.14ZM5,3.2a.42.42,0,0,1-.26-.08.52.52,0,0,1-.15-.18v0h0l0-.1a.39.39,0,0,1,.06-.28l0,0h0a.55.55,0,0,1,.14-.12c.1,0,0,0,.12,0a.41.41,0,0,1,.31,0h0a.31.31,0,0,1,.15.13A.45.45,0,0,1,5,3.2ZM1.72,2.9c-.09,0-.2,0-.3,0a.93.93,0,0,1-.33,0L1,2.85a.45.45,0,0,1-.18-.18.07.07,0,0,1,0-.06h1s-.07.27-.08.29Zm6.59,0c-.05,0-.05,0-.06-.06l0-.09a.88.88,0,0,1-.05-.15s.86,0,1,0h0s0,0,0,0l-.06.1h0L9,2.81a.4.4,0,0,1-.13.07,2.27,2.27,0,0,1-.59,0Zm-2.58,0a.92.92,0,0,1,0-.16.81.81,0,0,1,0-.15c.08,0,.28,0,.37,0s1,0,1.11,0a.37.37,0,0,1,0,.09s0,0,0,0a.06.06,0,0,1,0,0s0,.13,0,.14-.61,0-.69,0ZM4.25,2.75a.88.88,0,0,0,0,.15H2.88a1.56,1.56,0,0,1,0-.16.31.31,0,0,0,0-.08s0-.06,0-.06H4.27s0,0,0,.07a.17.17,0,0,0,0,.07ZM4.85,2a1.93,1.93,0,0,1,0-.34L5,1.7a.81.81,0,0,1,.15,0,1.82,1.82,0,0,1,0,.33A.76.76,0,0,1,5,2a.81.81,0,0,1-.15,0Zm-.13-.8h0l0,0a.34.34,0,0,1,.1-.3A.31.31,0,0,1,5,.8a.21.21,0,0,1,.14,0l0,0h0a.34.34,0,0,1,.06.06h0a.31.31,0,0,1-.19.47.3.3,0,0,1-.34-.18ZM4.4,1v.17a.61.61,0,0,0,0,.13l0,0h0l0,0,.06.1h0s0,.6,0,.64-.09.09-.12.13a0,0,0,0,1,0,0c-.08,0-.49,0-.59,0H.59a.13.13,0,0,0-.06,0,.35.35,0,0,0,0,.21s0,0,0,0,0,.07,0,.13l0,0h0l0,.07h0L.69,3h0L.74,3h0a.76.76,0,0,0,.19.12l.18.06h0c.11,0,.36,0,.44,0s0,0,0,.07l0,.09s0,0,0,0l-.05.17a1.8,1.8,0,0,1-.06.22L1.42,4V4l0,0s0,0,0,.06v.07a.06.06,0,0,0,0,0l0,0-.05.22,0,0v0s0,0,0,0,0,0,0,0v0a.15.15,0,0,0,0,0l0,.17a.09.09,0,0,0,0,0l0,0L1,5.44s0,0,0,0a.09.09,0,0,1,0,0l0,.08a.07.07,0,0,0,0,0l0,0L.8,6.26s0,0,0,0,0,0,0,0l0,0,0,.09s0,0,0,0,0,0,0,0l0,.18v0l-.11.37a.06.06,0,0,1,0,0l0,.09s0,0,0,0,0,0,0,0V7.5a.65.65,0,0,0,0,.13v0l0,0,0,.07h0v0L.81,8l.1.06h0l.1,0,.14,0H3.5l.13,0h0A.71.71,0,0,0,3.84,8h0l.07-.08h0A.66.66,0,0,0,4,7.72s0,0,0,0h0l0-.09a.86.86,0,0,0,0-.23l0-.11v0l0,0v0l-.11-.38s0,0,0,0h0v0l0-.16,0,0v0s0,0,0,0l0-.11c0-.08,0-.17-.09-.14l0,0-.14,0-.07,0,0,.07,0,.06v0l0,.19v0l.12.43s0,0,0,0,0,0,0,0a.61.61,0,0,1,0,.13H.87l0-.17s0,0,0,0L.94,7V7s0,0,0,0,0-.09,0-.13l.06-.25a.19.19,0,0,0,0-.07l.05-.18a.06.06,0,0,0,0,0l0-.09s0,0,0-.07v0L1.2,6V6l.05-.18s0,0,0,0L1.48,5c0-.08.07-.23.08-.29s0,0,0-.06.06-.21.07-.28l.21-.76,0-.13V3.39s0,0,0,0v0l0-.06s0-.06,0-.06h.65s0,.06,0,.07l0,.09s0,0,0,0l.08.31c0,.08.05.15.06.22l.05.18a.06.06,0,0,1,0,0l0,.09s0,0,0,0l0,.1c0,.06,0,.11,0,.16s.07,0,.12,0,0,0,0,0h.1s0,0,.06,0a1.46,1.46,0,0,0,0-.2s0,0,0,0,0,0,0,0,0,0,0-.05,0,0,0,0l-.11-.41a.06.06,0,0,1,0,0l0-.16s0,0,0,0,0,0,0,0,0,0,0,0,0,0,0,0,0,0,0,0a.09.09,0,0,1,0,0l0,0v0h1.4s.08.08.1.1.06,0,.06.06V7.93l0,.11,0,.09a.32.32,0,0,1-.08.09l0,0,0,0-.28.12H4l-.2.11,0,0h0l-.11.14h0l-.09.19s0,0,0,.06,0,0,0,.06v.35l0,0,0,0a.08.08,0,0,0,.06,0H6.39l.05,0,0,0h0l0,0V9a.2.2,0,0,0,0,0l-.06-.18h0v0h0l0-.06h0l-.14-.16-.1-.06h0l0,0h0L6,8.43H6l-.1,0,0,0H5.75a.47.47,0,0,1-.21-.16A.4.4,0,0,1,5.47,8c0-.08,0-.9,0-1,0-.44,0-3.53,0-3.56h0l.09-.08c.07-.08,0-.07.15-.07H7a.46.46,0,0,1,0,.16l-.08.29c0,.06,0,.14-.05.19a.06.06,0,0,1,0,0l0,.16s0,0,0,0l0,.17a.15.15,0,0,1,0,.06s0,.09,0,.13v0l-.07.26a.06.06,0,0,1,0,0l-.23.84V5.7s0,0,0,0,0,0,0,0l0,.09,0,0V6s0,0,0,0,0,0,0,0l-.13.49s0,0,0,0L6,7.12s0,.1,0,.14v0c0,.1,0,0,0,.19a.61.61,0,0,0,.05.18v0A.91.91,0,0,0,6,7.85l0,.06a.69.69,0,0,0,.22.16l.06,0,.12,0H8.83a.78.78,0,0,0,.25-.07.94.94,0,0,0,.19-.14l0,0h0l.07-.09,0,0h0l0-.07a.76.76,0,0,0,.06-.2V7.35s0,0,0,0l0-.15a.09.09,0,0,1,0,0l0-.08s0,0,0,0,0,0,0,0,0,0,0,0l-.2-.74a.06.06,0,0,1,0,0L9.11,6v0L9,5.54s0,0,0,0,0,0,0,0l0-.09a.05.05,0,0,1,0,0l0-.09s0,0,0,0L8.85,5a.93.93,0,0,0,0-.13s0,0,0,0l0-.08a.09.09,0,0,1,0,0,.68.68,0,0,1,0-.13l0-.13a2.09,2.09,0,0,0,0-.21.15.15,0,0,0,0,0,.09.09,0,0,0,0,0s0,0,0,0,0,0,0-.06l0-.12s0,0,0,0l-.07-.28s0,0,0,0,0-.16-.06-.21,0,0,0,0a.06.06,0,0,1,0,0s0,0,0,0,.39,0,.49,0l.08,0H9l.21-.12h0l0,0h0l.06,0a.71.71,0,0,0,.12-.18l.05-.12V2.61s0,0,0,0,0-.15,0-.21l-.05,0a.11.11,0,0,0-.06,0c-1.24,0-2.48,0-3.72,0h0s0,0-.05,0l-.1-.1s0-.63,0-.65h0l.08-.13a.42.42,0,0,0,0-.1s0,0,0-.07a.81.81,0,0,0,0-.22.3.3,0,0,0,0-.11L5.45.7A.38.38,0,0,0,5.33.6L5.23.54a.73.73,0,0,0-.34,0L4.72.56h0A.91.91,0,0,0,4.55.7l-.1.15v0a.29.29,0,0,0,0,.1A.07.07,0,0,0,4.4,1Z"/><path class="cls-2" d="M2.66,6.47s0,0,0,0l0,0-.06,0,0,0-.06,0h0s-.08,0-.12,0H2.2s0,0-.05,0A.83.83,0,0,1,2,6.56L1.9,6.42h0v0h0a.35.35,0,0,1,0-.11V6.11s0,0,0-.06,0,0,0,0h0A.42.42,0,0,1,2,5.86l.12-.08h.06c.06,0,.08,0,.15,0h.1a.5.5,0,0,1,.19.12l0,0h0l0,.08h0s0,0,0,0,0,0,0,0v0a.25.25,0,0,1,0,.07s0,0,0,.07v0s0,0,0,0h0v0h0l0,.06v0ZM2.6,4.88a2.62,2.62,0,0,0,0,.28h.52l-.07.07-.29.29h0s0,0,0,0a.1.1,0,0,1-.08,0h0l-.08,0,0,0H2.11L2,5.5H1.94l-.15.11-.06.06h0l-.09.13h0l0,.06v0s0,0,0,0V6a.46.46,0,0,0,0,.14v.19l.07.2a.13.13,0,0,0,0,0l.05.08,0,0a.74.74,0,0,0,.12.13l0,0h0l.21.09h0a.69.69,0,0,0,.25,0h.07l.15,0h0a.37.37,0,0,0,.12-.07l.06,0A.57.57,0,0,0,3,6.6H3L3,6.39s0,0,0-.07V6.08s0,0,0,0S3,6,3,6V6l0-.08a.21.21,0,0,1,0-.11l0,0L3,5.69H3l.09-.09h0l.09-.1h0l0,0h0l.08-.07V5.9h.31V5s0,0,0-.05v0h0l0,0s-.13,0-.19,0H2.6v0Z"/><path class="cls-2" d="M7.53,5.19v0c.08,0,0,0,.09,0h.09c.06,0,.06,0,.11,0h0l.06,0h0l.07,0a.81.81,0,0,1,.1.09l.06.09,0,.06h0a1,1,0,0,1,0,.23s0,0,0,0,0,0,0,0L8,5.92s0,0,0,0,0,0,0,0l0,0h-.1l-.1,0a.1.1,0,0,1-.08,0H7.57L7.45,6,7.38,5.9a.34.34,0,0,1-.09-.15s0,0,0,0,0-.06,0-.15,0,0,0-.09h0s0,0,0,0l0,0a.5.5,0,0,1,.21-.19Zm.92.39h0a.22.22,0,0,0,0-.08c0-.11,0,0,0-.1a.2.2,0,0,1,0-.06s0,0,0,0v0a.88.88,0,0,0-.12-.17A.63.63,0,0,0,8.13,5L8,4.91h0l-.07,0H7.78s0,0,0,0H7.42L7.29,5h0l0,0h0l0,0A.76.76,0,0,0,7,5.24l0,0H7l0,.07s0,0,0,0H7s0,0,0,0,0,.06,0,.1v.21s0,0,0,0l0,.11H7l.14.24,0,0h0l.23.16h0a.33.33,0,0,0,.14,0v.08c0,.11,0,.08-.21.08s-.09,0-.09.3a2.81,2.81,0,0,1,.3,0s0,.11,0,.14V7.1c.37,0,.31,0,.31-.14V6.81H8s.12,0,.14,0V6.5h-.3V6.34A.29.29,0,0,0,8,6.3h.06l.1-.06,0,0,.08-.08h0v0l0,0,0,0h0l0-.06h0l0-.18a.42.42,0,0,0,0-.16Z"/><path class="cls-1" d="M4.86,7.84h.28a1.4,1.4,0,0,0,0-.29H4.86a1.4,1.4,0,0,0,0,.29Z"/><path class="cls-1" d="M7.11,2.9c-.09,0-1.35,0-1.36,0V2.75a.65.65,0,0,1,0-.14H7.12c.08,0,.1,0,0,.2a.24.24,0,0,1,0,.09Zm-1.38,0h.7c.08,0,.67,0,.69,0s0-.1,0-.14a.06.06,0,0,0,0,0s0,0,0,0a.37.37,0,0,0,0-.09c-.08,0-1,0-1.11,0s-.29,0-.37,0a.81.81,0,0,0,0,.15.92.92,0,0,0,0,.16Z"/><path class="cls-2" d="M2.66,6.47l0,0h0l-.17.1-.08,0c-.08,0,0,0-.12,0H2.16l-.08,0A.27.27,0,0,1,2,6.51l0,0H2a.41.41,0,0,1-.06-.11s0,0,0,0l0-.12,0-.11A.31.31,0,0,1,1.93,6V6a.46.46,0,0,1,.17-.14h0s0,0,.05,0H2.12L2,5.86A.42.42,0,0,0,1.89,6h0s0,0,0,0,0,0,0,.06v.16a.35.35,0,0,0,0,.11h0v0h0L2,6.56a.83.83,0,0,0,.13.07c.06,0,0,0,.05,0h.1s.08,0,.12,0h0l.06,0,0,0,.06,0,0,0s0,0,0,0Z"/><path class="cls-1" d="M4.86,1.71h.28V2H4.86V1.71Zm0,.31A.81.81,0,0,0,5,2a.76.76,0,0,0,.15,0,1.82,1.82,0,0,0,0-.33A.81.81,0,0,0,5,1.7l-.15,0a1.93,1.93,0,0,0,0,.34Z"/><path class="cls-1" d="M4.86,7.84a1.4,1.4,0,0,1,0-.29h.28a1.4,1.4,0,0,1,0,.29Zm.29-.29h-.3a1.5,1.5,0,0,0,0,.3,1.5,1.5,0,0,0,.3,0,1.5,1.5,0,0,0,0-.3Z"/></svg>