<svg id="Layer_1" data-name="Layer 1" xmlns="http://www.w3.org/2000/svg" viewBox="0 0 10 10"><defs><style>.cls-1{fill:#193669;}.cls-2{fill:#ff4041;}.cls-3{fill:#e5cb10;}</style></defs><path class="cls-1" d="M3.49,5.54a.34.34,0,0,0-.1-.24.32.32,0,0,0-.23-.09h0a.34.34,0,0,0-.24.11l-.5.56a.32.32,0,0,0,0,.46.34.34,0,0,0,.24.09.3.3,0,0,0,.23-.11L3,6.19l.39-.43A.31.31,0,0,0,3.49,5.54Z"/><path class="cls-1" d="M4,6.23a.3.3,0,0,0,0-.42.29.29,0,0,0-.21-.09h0a.29.29,0,0,0-.22.1l0,0-.4.44a.31.31,0,0,0,0,.43.27.27,0,0,0,.22.08.27.27,0,0,0,.22-.1h0L4,6.23Z"/><path class="cls-1" d="M4.69,6.55a.32.32,0,0,0-.1-.23.31.31,0,0,0-.22-.09h0a.3.3,0,0,0-.23.11L3.7,6.8a.33.33,0,0,0,0,.45A.32.32,0,0,0,4,7.34a.33.33,0,0,0,.23-.1l.1-.11.33-.36A.35.35,0,0,0,4.69,6.55Z"/><path class="cls-1" d="M5.17,6.8h0A.27.27,0,0,0,5,6.72H5a.25.25,0,0,0-.2.09l0,.06-.33.36h0a.28.28,0,0,0,0,.39.32.32,0,0,0,.21.08.33.33,0,0,0,.2-.09l.13-.15H5l.24-.26A.28.28,0,0,0,5.17,6.8Z"/><path class="cls-1" d="M5.58,7.13h0L5.41,7a.41.41,0,0,1-.11.3l-.19.2.18.12a.28.28,0,0,0,.39-.07.3.3,0,0,0,.05-.16.29.29,0,0,0-.07-.18Z"/><polygon class="cls-2" points="1.4 2.3 0.05 4.63 0.91 5.13 1.04 4.9 2.26 2.8 1.4 2.3"/><path class="cls-1" d="M7.61,5.69h0A7,7,0,0,0,5.53,4.16.9.9,0,0,0,5,4.09l-1.49.3H3.44a.36.36,0,0,1-.33-.21.34.34,0,0,1,.19-.45L4.71,3.1a1.44,1.44,0,0,0-.77,0l-.84.18-.19,0a.79.79,0,0,1-.4-.1l-.23-.11L1.21,4.91l1.22.72.37-.41a.46.46,0,0,1,.34-.16.48.48,0,0,1,.35.14.45.45,0,0,1,.15.39l.13,0a.46.46,0,0,1,.47.53l.11,0a.51.51,0,0,1,.35.13.52.52,0,0,1,.14.38l.12,0a.47.47,0,0,1,.32.12L5.67,7h0l.06,0h0l0,0,.06.06a.31.31,0,0,0,.42-.45h0l-.52-.5a.07.07,0,1,1,.1-.11l.52.51h0l.07.07a.28.28,0,0,0,.24.09.32.32,0,0,0,.24-.11.34.34,0,0,0,0-.45h0l-.53-.5a.08.08,0,1,1,.11-.11l.52.5H7l0,0a.37.37,0,0,0,.57-.45Z"/><path class="cls-1" d="M7.27,3.28a.8.8,0,0,1-.59.05L5.8,3.07a1.08,1.08,0,0,0-.75,0L5,3.16h0l-1.58.7a.19.19,0,0,0-.11.25.21.21,0,0,0,.19.12h0L5,4A.92.92,0,0,1,5.6,4,7.16,7.16,0,0,1,7.69,5.55L8.81,5,7.72,3.05Z"/><polygon class="cls-3" points="8.61 2.3 7.74 2.8 7.81 2.91 7.81 2.92 8.98 4.94 8.98 4.94 8.98 4.95 9.09 5.13 9.95 4.63 8.61 2.3"/></svg>