<svg id="Layer_1" data-name="Layer 1" xmlns="http://www.w3.org/2000/svg" viewBox="0 0 10 10"><defs><style>.cls-1{fill:#ff4041;}.cls-2{fill:#193669;}.cls-3{fill:#e5cb10;}.cls-4{fill:#1353ba;}</style></defs><path class="cls-1" d="M7.11,2.35A.29.29,0,0,0,7,2.56H7v.16H7v.08l0,0A.24.24,0,0,0,6.87,3h0v.2a.22.22,0,0,0,0,.16.27.27,0,0,0,.13.07.55.55,0,0,0,0,.13A.66.66,0,0,0,7.73,4a.65.65,0,0,0,.73-.51v0a.22.22,0,0,0,.17-.2V3.08a.23.23,0,0,0-.13-.21V2.79a.6.6,0,0,0-.58-.62H7.87a.37.37,0,0,0-.35.12l0,0H7.41A.35.35,0,0,0,7.11,2.35Z"/><path class="cls-1" d="M1.26,3.45l.05.13A.66.66,0,0,0,1.94,4a.65.65,0,0,0,.73-.51v0a.22.22,0,0,0,.17-.2V3.08a.23.23,0,0,0-.13-.21V2.79a.6.6,0,0,0-.58-.62H2.09a.39.39,0,0,0-.36.12l-.05,0H1.62a.35.35,0,0,0-.3,0,.28.28,0,0,0-.1.21h0v.16h0v.08l-.06,0A.24.24,0,0,0,1.08,3h0v.2a.27.27,0,0,0,0,.16A.33.33,0,0,0,1.26,3.45Z"/><path class="cls-2" d="M8.45,4.58H7.26a1.2,1.2,0,0,0-.42.12,4.39,4.39,0,0,1-1.74,1l-.1,0-.1,0a4.39,4.39,0,0,1-1.74-1,1.2,1.2,0,0,0-.42-.12H1.55a.8.8,0,0,0-.8.8V6.77A.22.22,0,0,0,1,7H1a.22.22,0,0,0,.22-.22A8.93,8.93,0,0,1,1.3,5.51c.06,0,.11,4,.11,4a.35.35,0,0,0,.1.26.4.4,0,0,0,.26.1.36.36,0,0,0,.36-.36s.05-2.17.11-2.17.11,2.17.11,2.17a.4.4,0,0,0,.1.26.4.4,0,0,0,.26.1h0A.35.35,0,0,0,3,9.77a.43.43,0,0,0,.11-.28V5.71a.12.12,0,0,1,.07-.11.14.14,0,0,1,.11,0,3.39,3.39,0,0,0,1.69.61h.12a3.39,3.39,0,0,0,1.69-.61.14.14,0,0,1,.11,0,.12.12,0,0,1,.07.11V9.49A.43.43,0,0,0,7,9.77a.35.35,0,0,0,.25.1h0a.34.34,0,0,0,.36-.36s0-2.17.11-2.17.11,2.17.11,2.17a.36.36,0,0,0,.36.36.4.4,0,0,0,.26-.1.35.35,0,0,0,.1-.26s.05-4,.11-4a8.93,8.93,0,0,1,.11,1.26A.22.22,0,0,0,9,7H9a.22.22,0,0,0,.22-.22V5.38A.8.8,0,0,0,8.45,4.58Z"/><path class="cls-3" d="M5,1.55A.71.71,0,1,0,4.3.84.71.71,0,0,0,5,1.55Z"/><path class="cls-4" d="M3,1.58a.48.48,0,0,0,0-1,.49.49,0,0,0-.48.48A.49.49,0,0,0,3,1.58Z"/><path class="cls-4" d="M6.89,1.58a.48.48,0,0,0,0-1,.49.49,0,0,0-.48.48A.49.49,0,0,0,6.89,1.58Z"/></svg>