<svg id="Layer_1" data-name="Layer 1" xmlns="http://www.w3.org/2000/svg" viewBox="0 0 10 10"><defs><style>.cls-1{fill:#1353ba;}.cls-1,.cls-2,.cls-3,.cls-4{fill-rule:evenodd;}.cls-2{fill:#e5cb10;}.cls-3{fill:#193669;}.cls-4,.cls-5{fill:#ff4041;}</style></defs><path class="cls-1" d="M4.85,7.25h.3V3.49a1,1,0,0,1-.3,0V7.25Z"/><path class="cls-1" d="M.84,7.55a.09.09,0,0,0,0,0l0,.05h0L1,7.74l.09,0,.07,0a1.06,1.06,0,0,0,.31,0h2l.09,0,.14-.07a.49.49,0,0,0,.13-.2H.84Z"/><path class="cls-1" d="M7.69,7.55H6.23a.37.37,0,0,0,0,.11l.09.09.06,0,0,0,0,0a1,1,0,0,0,.31,0H8.59a.74.74,0,0,0,.26,0l.08,0,0,0c.08,0,0,0,.06,0l0,0h0l0,0s0,0,0,0,0,0,0-.08H7.69Z"/><path class="cls-1" d="M2.88,2.9H4.27a.71.71,0,0,1,0-.29H2.84c-.09,0,0,.27,0,.3Z"/><path class="cls-1" d="M7.11,2.9c0-.16.15-.33,0-.29H5.75V2.9S7,2.91,7.11,2.9Z"/><path class="cls-1" d="M1.72,2.9s.08-.27.08-.29H.85C.94,3,1.42,2.9,1.72,2.9Z"/><path class="cls-1" d="M8.28,2.9c.27,0,.8.06.87-.29H8.21c0,.11,0,.18.07.29Z"/><path class="cls-1" d="M2.56,2.86s0-.08,0-.12,0-.06,0-.13H2.13c0,.08-.07.22-.08.29h.51v0Z"/><path class="cls-1" d="M7.47,2.77a.5.5,0,0,0,0,.13H8c0-.1-.06-.19-.08-.29H7.52s0,.12,0,.16Z"/><path class="cls-1" d="M4.86,1.71V2h.28V1.7a2.53,2.53,0,0,1-.28,0Z"/><path class="cls-1" d="M5.2,8.15H4.89c-.14,0-.07.12-.3.33S4,8.67,3.83,9s-.08.24.11.22H6.2c0-.39-.27-.45-.49-.55a.78.78,0,0,1-.51-.49Z"/><path class="cls-2" d="M5,3.2a.45.45,0,1,0-.22-.84A.45.45,0,0,0,5,3.2Z"/><path class="cls-1" d="M4.72,1.22A.3.3,0,1,0,5.25.93a.31.31,0,0,0-.53.29Z"/><path class="cls-3" d="M5.2,8.15c.14.6,1,.36,1,1H3.94c-.19,0-.15,0-.11-.22s.54-.3.76-.5.16-.36.3-.33Zm0-.6a1.5,1.5,0,0,1,0,.3,1.5,1.5,0,0,1-.3,0,1.5,1.5,0,0,1,0-.3Zm1.08,0H9.16a.37.37,0,0,1-.2.23,12.45,12.45,0,0,1-2.14.07c-.26,0-.5,0-.59-.3Zm-5.39,0H3.77a.43.43,0,0,1-.27.27c-.69.07-1.39,0-2.08,0-.24,0-.53,0-.58-.3ZM7.37,3.21H8s1.11,4,1.11,4H6.26C6.62,6,7,4.46,7.37,3.21Zm-2.52.28a1,1,0,0,0,.3,0V7.24h-.3V3.49Zm2.59-.63a2,2,0,0,1,.07-.26h.37A1.47,1.47,0,0,1,8,2.9a2.35,2.35,0,0,1-.53,0,.06.06,0,0,1,0,0ZM2.53,2.74s0,.09,0,.12,0,0,0,0A2.35,2.35,0,0,1,2,2.9a1.12,1.12,0,0,1,.08-.3h.37s0,.11,0,.14ZM5,3.2a.45.45,0,0,1-.22-.84A.45.45,0,1,1,5,3.2ZM1.72,2.9c-.3,0-.78.09-.87-.29h1s-.07.27-.08.29Zm6.59,0c-.07,0-.1-.25-.13-.3a8.32,8.32,0,0,1,1,0c-.12.36-.55.3-.87.3Zm-2.58,0c0-.09,0-.22,0-.31.32,0,1.2,0,1.48,0a1.32,1.32,0,0,1-.09.3c-.31,0-1.07,0-1.39,0ZM4.25,2.75a.88.88,0,0,0,0,.15H2.88s-.13-.33,0-.3H4.27c0,.05,0,.09,0,.14ZM4.85,2a1.93,1.93,0,0,1,0-.34,1,1,0,0,0,.3,0,1.82,1.82,0,0,1,0,.33c-.09,0-.21,0-.3,0Zm-.13-.8A.3.3,0,0,1,5.25.93a.3.3,0,1,1-.53.29ZM4.4,1a.64.64,0,0,0,.14.48s0,.6,0,.64-.09.09-.12.13c-.49.14-3.37-.1-3.89.08a.7.7,0,0,0,.41.79,1.71,1.71,0,0,0,.67.07c-.05.4-.25.94-.34,1.32C1.05,5.35.78,6.35.53,7.26a.74.74,0,0,0,.64.89H3.44a.76.76,0,0,0,.67-.79c-.08-.29-.18-.66-.27-1,0-.06,0-.3-.12-.25a2.3,2.3,0,0,0-.25.08c.08.31.2.7.27,1H.87c.36-1.31.71-2.73,1.11-4h.65s0,.06,0,.07c.08.31.17.66.26,1s0,.39.2.32a.58.58,0,0,0,.19-.06c-.09-.42-.26-.93-.34-1.3h1.4s.08.08.1.1.06,0,.06.06V7.93a.51.51,0,0,1-.06.2c-.12.21-.55.27-.73.44A.86.86,0,0,0,3.51,9a2.74,2.74,0,0,0,0,.41.17.17,0,0,0,.11.11H6.39c.24-.07.1-.76-.15-.94S5.52,8.37,5.47,8c0-.84,0-4,0-4.61l.09-.08c.07-.08,0-.07.15-.07H7c-.35,1.35-.74,2.71-1.1,4.05a.74.74,0,0,0,.57.88H8.83a.74.74,0,0,0,.61-1C9.1,5.92,8.72,4.5,8.38,3.25c-.06-.11.48,0,.57-.07.32,0,.81-.76.41-.88-1.25-.06-2.6.11-3.8,0l-.1-.1s0-.63,0-.65a.62.62,0,0,0,.14-.31A.61.61,0,0,0,4.4,1Z"/><path class="cls-4" d="M2.66,6.47c-.27.43-1,.06-.79-.42a.45.45,0,1,1,.79.42ZM2.6,4.88a2.62,2.62,0,0,0,0,.28h.52c-.07.08-.33.31-.39.4A.77.77,0,1,0,3,5.77c.13-.11.26-.27.4-.38V5.9h.31a6.37,6.37,0,0,0,0-1c0-.11-.89,0-1-.05v0Z"/><path class="cls-5" d="M8.43,5.57a.72.72,0,0,0-.57-.69s-.13,0-.13,0A.66.66,0,0,0,7.29,5h0a.79.79,0,0,0-.3.91H7l.14.24,0,0h0l.24.17a.33.33,0,0,0,.14,0c0,.16.07.18-.21.16-.12,0-.09,0-.09.3a2.81,2.81,0,0,1,.3,0,2.8,2.8,0,0,1,0,.29c.45,0,.28,0,.31-.29a1.48,1.48,0,0,0,.3,0V6.5h-.3V6.34A.29.29,0,0,0,8,6.28H8a.79.79,0,0,0,.25-.19h0l0-.07s0,0,0,0h0C8.39,5.93,8.5,5.59,8.43,5.57ZM8,5.92s0,0-.09,0h0l0,0h0a.28.28,0,0,1-.22,0,.44.44,0,0,1-.36-.58c0-.11.23-.26.24-.26v0A.46.46,0,0,1,8,5.92Z"/><path class="cls-1" d="M4.86,7.84h.28a1.4,1.4,0,0,0,0-.29H4.86a1.4,1.4,0,0,0,0,.29Z"/></svg>