<svg id="Layer_1" data-name="Layer 1" xmlns="http://www.w3.org/2000/svg" viewBox="0 0 10 10"><defs><style>.cls-1{fill:#e5cb10;}.cls-1,.cls-2,.cls-3{fill-rule:evenodd;}.cls-2{fill:#ff4041;}.cls-3{fill:#193669;}</style></defs><path class="cls-1" d="M2,.25A.78.78,0,0,1,2,1.81.78.78,0,0,1,2,.25"/><path class="cls-2" d="M7.87,6.91a.68.68,0,0,1,0,1.36.68.68,0,0,1,0-1.36"/><path class="cls-2" d="M2.48,6.91a.68.68,0,0,1,0,1.36.68.68,0,0,1,0-1.36"/><path class="cls-3" d="M2.05,8.37c-.65.07-.95.79-1,1.38h.58a.92.92,0,0,1,.15-.54v.54H3.13V9.21a.92.92,0,0,1,.15.54h0a2.23,2.23,0,0,1,.24-1c-.3-.54-1-.43-1.52-.42"/><path class="cls-2" d="M5.17,6.7a.73.73,0,0,1,0,1.46A.73.73,0,0,1,5.17,6.7Z"/><path class="cls-3" d="M4.72,8.26c-.7.09-1,.86-1,1.49H4.3a1,1,0,0,1,.16-.57v.57h1.4V9.18a1,1,0,0,1,.17.57h.62c0-.63-.38-1.44-1-1.49-.24,0-.66,0-.9,0Z"/><path class="cls-3" d="M7.44,8.37a.89.89,0,0,0-.66.42,2.42,2.42,0,0,1,.23,1h0a1,1,0,0,1,.15-.54l0,.54h1.3V9.21a.92.92,0,0,1,.15.54h.58c0-.59-.35-1.34-1-1.38-.23,0-.62,0-.85,0Z"/><path class="cls-3" d="M8.55,4.93H4.25V3.86a.37.37,0,0,0,.28-.61l.83-.86c.12-.13-.08-.32-.2-.19l-.87.92h0V1.46h4.3Zm.89,0H8.83V1.46c.19,0,.78.1.74-.15a.13.13,0,0,0-.15-.13h-3c0-.13.1-.58-.15-.56s-.1.44-.13.56H3.36a.14.14,0,0,0-.15.15c0,.22.58.1.76.13v1.6L3.54,3,3,2.16C2.6,1.83,2,2,1.59,1.93A1.31,1.31,0,0,0,.47,3.45a5.61,5.61,0,0,0-.06.92.34.34,0,0,0,.57,0C1,4,1,3.22,1.21,2.92c0,.11,0,1.44,0,1.59L.86,6.74a.39.39,0,0,0,.77.09L2,4.88l.31,1.75a1,1,0,0,1,.81.19c0-.4-.31-1.9-.38-2.32l0-1.38c.13.14.32.54.54.55l.7.14V4.93H3.34c-.18,0-.16.3,0,.28H6.19v.63l-.64.59a1.3,1.3,0,0,1,.26.14l.37-.36c0,.21-.09.77.13.76s.13-.53.15-.73l.71.66a1.84,1.84,0,0,1,.22-.17l0,0s-.87-.84-.9-.85V5.21h3a.14.14,0,1,0,0-.28"/></svg>