<svg id="Layer_1" data-name="Layer 1" xmlns="http://www.w3.org/2000/svg" viewBox="0 0 10 10"><defs><style>.cls-1{fill:#193669;}.cls-2{fill:#ff4041;}.cls-3{fill:#e5cb10;}</style></defs><path class="cls-1" d="M3.49,5.54a.33.33,0,0,0-.58-.22c-.16.24-.85.69-.49,1,.19.19.46,0,.59-.15S3.52,5.73,3.49,5.54Z"/><path class="cls-1" d="M4,6.23a.31.31,0,1,0-.5-.37l-.4.44c-.27.29.2.71.46.41C3.61,6.69,4,6.26,4,6.23Z"/><path class="cls-1" d="M4.69,6.55a.32.32,0,0,0-.56-.21L3.7,6.8A.33.33,0,0,0,4,7.34c.14,0,.25-.12.33-.21S4.71,6.73,4.69,6.55Z"/><path class="cls-1" d="M5.17,6.8a.29.29,0,0,0-.45.07c-.15.18-.59.5-.32.75s.43,0,.55-.17S5.42,7,5.17,6.8Z"/><path class="cls-1" d="M5.58,7.13,5.41,7c0,.19-.18.37-.3.5l.18.12C5.61,7.83,5.91,7.33,5.58,7.13Z"/><path class="cls-2" d="M1.39,2.3.05,4.63l.86.5L2.26,2.8Z"/><path class="cls-1" d="M7.61,5.69C6.93,5.05,6,4.11,5,4.09l-1.49.3a.35.35,0,0,1-.2-.66L4.71,3.1c-.78-.29-1.71.49-2.43,0L1.21,4.91l1.22.72.37-.41a.49.49,0,0,1,.84.37.47.47,0,0,1,.6.51.47.47,0,0,1,.6.49c.3-.13.61.27.83.42l.16.14c.28.27.7-.18.42-.45l-.52-.5a.07.07,0,1,1,.1-.11l.6.58c.3.3.77-.18.46-.47l-.53-.5a.08.08,0,0,1,.11-.11L7,6.1l0,0A.37.37,0,0,0,7.61,5.69Z"/><path class="cls-1" d="M7.27,3.28c-.37.24-1.09-.13-1.47-.21-.54-.25-1.85.59-2.44.8a.19.19,0,0,0,.08.37L5,4c1.07,0,2,1,2.72,1.6L8.81,5,7.72,3.05Z"/><path class="cls-3" d="M8.61,2.3l-.87.5L9.09,5.13l.86-.5Z"/></svg>