<svg id="Layer_1" data-name="Layer 1" xmlns="http://www.w3.org/2000/svg" viewBox="0 0 10 10"><defs><style>.cls-1{fill:#193669;}.cls-2{fill:#e5cb10;}.cls-3{fill:#1353ba;}.cls-4{fill:#ff4041;}</style></defs><rect class="cls-1" x="0.03" y="1.68" width="2.02" height="0.47" transform="translate(-1.09 1.47) rotate(-49.68)"/><rect class="cls-1" x="3.79" y="8.55" width="2.02" height="0.47"/><rect class="cls-1" x="8.77" y="0.96" width="0.47" height="2.02" transform="translate(0.54 5.63) rotate(-35.72)"/><path class="cls-2" d="M6.14,2.25a2.91,2.91,0,0,1,1.4-.7,1,1,0,0,0,.64-.07l1,1.43A.71.71,0,0,0,9,3.29c0,.31-.31.54-.69.86L7.68,5.47a.32.32,0,0,1-.55,0,.38.38,0,0,0,0-.21c0-.1.46-.81.15-.7l-.64.45a.45.45,0,0,0-.32.22h0l-.15.11V4.83l.68-.47a.13.13,0,0,0-.08-.23,6.08,6.08,0,0,0-.6.39V3.89c0-.05.47-.28.46-.37,0-.33-.35,0-.47.07a.41.41,0,0,0-.3-.32c.06,0,.33-.19.33-.28A.13.13,0,0,0,6,2.84a4.25,4.25,0,0,0-.61.4A.41.41,0,0,0,5.14,3Z"/><path class="cls-3" d="M5,3.09a.26.26,0,0,1,.25.19v2.3a.12.12,0,0,0,.12.13.13.13,0,0,0,.13-.13V3.47a.27.27,0,0,1,.45.2V5.79a.08.08,0,0,0,.14,0c.12-.16.29-.67.56-.64A.31.31,0,0,1,7,5.65L6.2,6.89c0,.49-.07.86-.31,1.06a.74.74,0,0,0-.17.45H4a.81.81,0,0,0-.23-.5c-.42-.37-.33-1.52-.32-1.64s0-1.68,0-1.7a.26.26,0,0,1,.39-.23V5.74a.13.13,0,0,0,.26,0V4.08c-.07-.29.12-.61.43-.41V5.8c0,.16.26.16.25,0V3.52C4.72,3.33,4.8,3.09,5,3.09Z"/><path class="cls-4" d="M2.44,1.67c.57-.14,1.44.7,1.54.8s.7.6.72.61a.43.43,0,0,0-.19.35c-.06,0-.4-.36-.47-.35A.13.13,0,0,0,4,3.31l.23.19a.4.4,0,0,0-.27.34L3.64,3.6c-.13-.1-.29.1-.16.2l.45.38v0a.42.42,0,0,0-.59.13c-.12-.14-.34.05-.19.18l.13.11v.58c-.06,0-.61-.58-.67-.49s.16.56.16.62a.31.31,0,0,1-.58.21C2,5.1,1.72,4.22,1.72,4.2c-.35-.35-.62-.61-.62-.92a1,1,0,0,0-.3-.49L1.92,1.48A1,1,0,0,0,2.44,1.67Z"/></svg>