<svg id="Layer_1" data-name="Layer 1" xmlns="http://www.w3.org/2000/svg" viewBox="0 0 10 10"><defs><style>.cls-1{fill:#193669;}.cls-1,.cls-2{fill-rule:evenodd;}.cls-2{fill:#e5cb10;}.cls-3{fill:#ff4041;}</style></defs><path class="cls-1" d="M2.45,8V5a5.17,5.17,0,0,1,3.22.77c2.13-.25,1.56,1.3-.21,1a.22.22,0,0,0-.23.33c.91.55,3.35-1.15,4-1.66a.64.64,0,0,1,.46,1.13,20,20,0,0,1-3.44,2C5,9.52,3.62,8.57,2.45,8Z"/><polygon class="cls-2" points="0.05 4.98 2.15 4.98 2.15 7.94 0.05 7.94 0.05 4.98 0.05 4.98"/><path class="cls-3" d="M6.2,1.6a1.07,1.07,0,0,1,1.92.92A4.94,4.94,0,0,1,6.19,4.94,5,5,0,0,1,4.27,2.47,1.06,1.06,0,0,1,6.2,1.6Z"/></svg>