<svg id="Layer_1" data-name="Layer 1" xmlns="http://www.w3.org/2000/svg" viewBox="0 0 10 10"><defs><style>.cls-1{fill:#193669;}.cls-2{fill:#e5cb10;}.cls-3{fill:#ff4041;}</style></defs><path class="cls-1" d="M8,4.07s.18.06.14.1,0,0,0,0,.05,0,.06,0-.07,0-.05,0,.06,0,.13,0,0,.09-.08.09v0s.12,0,.15,0h.08s0,.06,0,.06-.11,0,0,0c-.07,0,0,0,.05,0s.09,0,.17.07,0,0,0,0a.12.12,0,0,1,.15,0s.05,0,.09,0,0,.08,0,.12,0,.07-.1.07c.1.09,0,0,0,.12s.09.07.09.11,0,.08.06.12H9c.12,0,.16.08.15.11s.05.08,0,.12.1,0,.1.06.16,0,.18,0,.06.07.05.12.17.14.25.2h0c0,.07,0,0,0,.09h0V6a2.65,2.65,0,0,1,.12.42l.09.07a1.25,1.25,0,0,0-.07.26l-.09.1c-.07,0-.18,0-.18.13l-.1,0h0a0,0,0,0,0,0,0s0,0,0,.06-.27.08-.29.15-.16,0-.15.09-.08,0-.1,0S9,7.4,9,7.48s-.05,0-.07.07-.06,0-.06,0-.06,0-.15.08,0,.07-.07.07,0,0,0,0,0,0,0,0-.24,0-.27.11,0,0,0,0,0,0-.06.06a.1.1,0,0,0,0,0s0,0,0,.06-.06,0-.07,0-.09.06-.09.07l0,0s0,0,0,0,0,0-.07,0,0,0,0,0,0,0-.05,0a.57.57,0,0,1-.19-.08s0,0,0,0,0,0,0,0-.14,0-.12,0,0,0,0,0-.1,0,0-.05l.11,0H7.49s-.15,0-.12,0,0,0,0,0,0,0,0,0-.09,0-.08.08,0,0,0,0,0,.05,0,0h0s0,0,0,0,0,0-.05,0-.07,0-.06,0-.07-.05,0,0,.07,0,.08,0,0-.05,0-.05-.06.06-.14,0-.07,0,0,0-.09,0-.1,0,0,0,0,0,0,0,.05-.06,0,0,0,0,.12,0,0,0S6.86,8,6.83,8a.18.18,0,0,0-.09,0s0,0,0,0H6.65c.08.05.19,0,0,.08l-.06,0c-.11,0,0,0-.06.07s-.06,0-.07,0H6.38s0,0,0,0-.09,0,0,.06,0,0-.09,0-.07,0-.1,0-.1,0-.11,0,0,0,0,0,0,0,0,0,.06,0,0,0,0,0-.06,0v0a.74.74,0,0,0-.16,0s0,0,0,0a.09.09,0,0,0-.08,0s-.09,0-.06,0,0,0,0,0,0,0,.08,0,0,0,0,0,0,0,0,0-.15,0-.08,0,0,0,0,0,0,0,0,0,0,0,0,0,0,0,0,0-.1,0-.08,0,0,0,0,0l.07,0s-.06,0,0,0,0,0,0,0l-.07,0,0,.06h0s0,0,0,0-.06,0,0,0,0,0-.06,0h0l0,0c-.06,0-.1,0-.09,0s0,0,.06-.07a.11.11,0,0,1-.12,0c-.06,0,0,0,0,0s0,.06,0,.06,0,0-.07,0l-.12,0s.12,0,0,.08-.12-.06-.08,0l0,0s-.11,0-.13,0-.1,0,0,0c-.09,0,0,0-.18,0v0c.08,0,.09,0,.1,0s-.13,0-.2,0-.09-.1-.14-.13L4,8.39c-.07,0-.19,0-.21,0,.11-.09.23,0,.34,0s0,0,.06,0,0,0,0,0,0,0,0,0,0,.06,0,.07,0,0,0,0,0,0,0,0,0,0,0,0-.07.05,0,.06,0-.06,0-.08,0,0,.11.06,0,0,0,0,0,0,0,0,0,0,0,0-.07,0-.09,0,0,0,0,0A3,3,0,0,1,4.15,9s-.06,0-.08.07,0,.06,0,.06-.26.15-.17.22.07,0,.11,0,0,.07,0,.08,0,0,0,0H2.23s-.14,0-.14,0,0,.06-.08.07a3.41,3.41,0,0,1-.37,0s-.07,0-.15,0a.09.09,0,0,0,0,0c0,.06-.07,0-.09.08s-.09.05-.11.08-.09,0-.09,0,0,0,0,0,0,0-.09,0-.06,0-.09,0,0,0,0,0-.09,0-.15,0-.11,0-.17-.1,0,0,0,0-.08,0-.12,0-.23,0-.37,0c0-.06.06-.07,0-.11a.06.06,0,0,1,0,0s0,0,0-.06a.32.32,0,0,0,0-.17v0s0,0,0,0,0,0,0,0,0,0,0,0,.06,0,.06,0,0,0,0-.07,0,0,0-.09,0,0,0-.05,0,0,0,0,0-.05,0-.05.05,0,0,0,0,0,0,0,0,0,0,0,0,0,0,0l.13-.4s0,0,0,0,0,0,0,0,0-.07,0-.1,0,0,0-.06,0,0,0,0a1,1,0,0,1,.37-.36s0,0,0-.05h0s0,0,0-.09,0,0,0,0l0,0s0,0,0,0,0,0,0,0,0-.05,0-.08a2.06,2.06,0,0,1,.32-.07l.06-.06s.06,0,.07-.05,0,0,0,0,0,0,0,0,0,0,0,0l.15-.09a.19.19,0,0,0,.09,0,.39.39,0,0,0,.23,0,4,4,0,0,1,1-.55,4.82,4.82,0,0,0,.51-.38v0A.53.53,0,0,0,3,6.17V6.09c-.09,0-.25,0-.23,0s0,0,0,0S2.67,6,2.64,6s-.08,0-.09,0,0,0,0,0-.1,0-.1,0-.05,0-.08,0,0,0-.07,0-.07,0-.11,0,0,0,0,0,0,0,0,0,0-.07,0-.09,0,0,0,0,.06,0,0,0,0,0,0,0,0,0,0,0a.5.5,0,0,0,.12-.08s0,0,0,0,0,0,0-.07a.06.06,0,0,1,0,0s0,0-.07-.06a.13.13,0,0,1-.09,0s.06,0,0,0l0,0s0-.07.05-.1,0,0,0,0,0,0,0,0,.05,0,.07,0,0,0,0,0,0,0,.05,0,0,0,0-.09,0,0,0,0-.09,0-.15,0,.05-.06.1-.09,0,0,0,0,0,0,0,0,0,0,0,0,.13,0,.16-.05,0,0,0,0,.13,0,.18-.05h.22l.44.15a1,1,0,0,1,.24-.08l0,0c.06,0,.06,0,.08,0l.13-.05s0,0,0,0l0,0a.11.11,0,0,1,.09,0s0,0,0,0,.06,0,.07,0,0,0,0,.1h.19a2,2,0,0,0,.26.09s0,0,0,0,0,0,0-.07l.4-.16a3,3,0,0,0,1.11-.15,1.73,1.73,0,0,0,.88.15Z"/><path class="cls-2" d="M7.69,5.94c-1.15-.52-4.14-.64-4.53.85.39,1.5,3.37,1.38,4.53.86S8.72,6.39,7.69,5.94ZM5.81,7.87c-3.1,0-3.1-2.12,0-2.15S8.92,7.84,5.81,7.87Z"/><path class="cls-3" d="M5.81,0A2.43,2.43,0,0,0,3.38,2.44c0,1.66,2.18,4.11,2.27,4.21a.22.22,0,0,0,.33,0c.09-.1,2.27-2.55,2.27-4.21A2.44,2.44,0,0,0,5.81,0Zm.08,3.66a1.23,1.23,0,0,1-.16-2.45A1.23,1.23,0,0,1,5.89,3.66Z"/></svg>