<svg id="Layer_1" data-name="Layer 1" xmlns="http://www.w3.org/2000/svg" viewBox="0 0 10 10"><defs><style>.cls-1{fill:#ff4041;}.cls-2{fill:#193669;}.cls-3{fill:#e5cb10;}</style></defs><path class="cls-1" d="M2.28,4.08A1.21,1.21,0,1,0,1.07,2.86,1.22,1.22,0,0,0,2.28,4.08Z"/><path class="cls-2" d="M3.8,4.9a1.55,1.55,0,0,1-.32-.54,1.63,1.63,0,0,0-.55-.09H1.63A1.6,1.6,0,0,0,0,5.87V7a6,6,0,0,0,2.33.41V6.83A2,2,0,0,1,3.8,4.9Z"/><path class="cls-1" d="M7.72,4.08A1.21,1.21,0,1,0,6.51,2.86,1.22,1.22,0,0,0,7.72,4.08Z"/><path class="cls-2" d="M8.37,4.27H7.07a1.63,1.63,0,0,0-.55.09,1.64,1.64,0,0,1-.32.54A2,2,0,0,1,7.65,6.83v.56A6,6,0,0,0,10,7V5.87A1.6,1.6,0,0,0,8.37,4.27Z"/><path class="cls-3" d="M3.91,4.36A1.21,1.21,0,1,0,5,2.61,1.21,1.21,0,0,0,3.91,4.36Z"/><path class="cls-2" d="M5.65,5.22H4.35a1.6,1.6,0,0,0-1.6,1.61V7.94a6.45,6.45,0,0,0,4.5,0V6.83A1.6,1.6,0,0,0,5.65,5.22Z"/></svg>