<svg id="Layer_1" data-name="Layer 1" xmlns="http://www.w3.org/2000/svg" viewBox="0 0 10 10"><defs><style>.cls-1{fill:#ff4041;}.cls-2{fill:#193669;}.cls-3{fill:#e5cb10;}</style></defs><path class="cls-1" d="M9.56,3.07C6.86-2.88-1.95.85.44,6.93,3.14,12.88,12,9.15,9.56,3.07ZM5,9.48C-.93,9.3-.92.7,5,.52,10.93.7,10.92,9.3,5,9.48Z"/><path class="cls-2" d="M5,1A4,4,0,0,0,5,9,4,4,0,0,0,5,1Z"/><path class="cls-3" d="M7.05,7.05a.19.19,0,0,1-.28,0L5.14,5.42A.45.45,0,0,1,4.8,4.6V2.54a.2.2,0,1,1,.4,0V4.6a.45.45,0,0,1,.22.54L7.05,6.77A.19.19,0,0,1,7.05,7.05Z"/></svg>