<svg id="Layer_1" data-name="Layer 1" xmlns="http://www.w3.org/2000/svg" viewBox="0 0 50 50"><defs><style>.cls-1{opacity:0.15;}.cls-2{fill:none;}.cls-3{fill:#2451aa;}.cls-4{fill:#fff;}</style></defs><g class="cls-1"><path class="cls-2" d="M21.18,6.74a18.26,18.26,0,0,1,15.5,8.16l.92-.55a19.48,19.48,0,1,0,.93,1.57l-.91.55A18.26,18.26,0,1,1,21.18,6.74Z"/><path class="cls-3" d="M21.16,5.67A19.34,19.34,0,0,1,37.6,14.35l1-.59a20.46,20.46,0,1,0,3.37,10.91,20.18,20.18,0,0,0-2.44-9.34l-1,.59A19.33,19.33,0,1,1,21.16,5.67Z"/><path class="cls-3" d="M21.25,11.3a13.68,13.68,0,0,1,11.52,6l3.91-2.37a18,18,0,1,0,.94,1.57l-3.93,2.37A13.68,13.68,0,1,1,21.25,11.3Z"/><path class="cls-4" d="M21.32,15.87a9.11,9.11,0,0,1,7.53,3.76l3.92-2.36a14,14,0,1,0,.92,1.57L29.77,21.2a9.13,9.13,0,1,1-8.45-5.33Z"/><path class="cls-3" d="M21.4,20.43A4.59,4.59,0,0,1,24.92,22l3.93-2.38a9.12,9.12,0,1,0,.92,1.57l-3.95,2.39A4.88,4.88,0,0,1,26,24.93a4.57,4.57,0,1,1-4.64-4.5Z"/><path class="cls-4" d="M22.08,23.72,24.92,22A4.56,4.56,0,1,0,26,24.93a4.88,4.88,0,0,0-.22-1.34l-2.91,1.76a.81.81,0,0,1-1.09-.25l0-.06A.94.94,0,0,1,22.08,23.72Z"/><path class="cls-3" d="M47.68,13.47a.6.6,0,0,0,.58,0l.6-.37a.29.29,0,0,0,.14-.26.28.28,0,0,0-.16-.25l-2.78-1.47.31-.18a.3.3,0,0,0,.14-.19.29.29,0,0,0,0-.22l-.39-.63a.3.3,0,0,0-.4-.1l-.33.2-.06-3.12a.3.3,0,0,0-.16-.25.28.28,0,0,0-.29,0l-.6.36A.57.57,0,0,0,44,7.5L44,10.79l-.16.09L43.8,7.77a.29.29,0,0,0-.15-.25.28.28,0,0,0-.29,0l-.6.36a.58.58,0,0,0-.29.51l.08,3.28-.16.1-.07-3.11a.28.28,0,0,0-.15-.25.29.29,0,0,0-.3,0l-.6.36A.6.6,0,0,0,41,9.3l.06,2.79a.3.3,0,0,1-.14.26l-2.34,1.41-1,.59-.92.55-3.91,2.37-3.92,2.36L24.92,22l-2.84,1.71a.94.94,0,0,0-.3,1.32l0,.06a.81.81,0,0,0,1.09.25l2.91-1.76,3.95-2.39,3.92-2.36,3.93-2.37.91-.55,1-.59,2.35-1.42a.31.31,0,0,1,.28,0l2.59,1.36a.58.58,0,0,0,.57,0l.6-.37a.27.27,0,0,0,.14-.26.29.29,0,0,0-.15-.25l-2.79-1.46.16-.1,3,1.56a.56.56,0,0,0,.57,0l.61-.36a.31.31,0,0,0,.14-.26.27.27,0,0,0-.16-.25L44.58,12l.15-.09Z"/></g></svg>