<svg id="Layer_1" data-name="Layer 1" xmlns="http://www.w3.org/2000/svg" viewBox="0 0 118 118"><defs><style>.cls-1{stroke:#000;stroke-linecap:round;stroke-linejoin:round;stroke-width:1.63px;}.cls-2{fill:#f9e92f;}.cls-3{fill:#e42528;}</style></defs><path d="M47.39,25.62a1.07,1.07,0,0,1-.26,1.05c-2,2-9.45,10.78-.2,17.46,9,6.53,17.79.19,20.42-4.08a1.29,1.29,0,1,1,2.12,1.45c-2.37,3.13-11.92,14-24.31,4.79-11.78-8.75-3-18.1.49-21.17a1.07,1.07,0,0,1,1.74.5"/><path d="M52.65,14.05s7.49-4.19,7.74,1c0,0-1.19,5.87-2.17,9.15A1.06,1.06,0,0,0,59,25.57L66.48,27A7.2,7.2,0,0,1,71,29.8l6.8,9.33a1.1,1.1,0,0,0,1.09.43L81.77,39a.87.87,0,0,1,.61,1.61l-3.71,2.16A2.85,2.85,0,0,1,75,42l-6.32-8.2a5.88,5.88,0,0,0-4-2.25A91.3,91.3,0,0,1,52.45,29.7a2.34,2.34,0,0,1-1.71-2.44l.57-7.8a1,1,0,0,0-.9-1l-1.33-.08a3.59,3.59,0,0,0-2.93,1.22l-5.34,6.08a1.39,1.39,0,0,1-2.12-1.79l5.94-7.3A4,4,0,0,1,47,15.17Z"/><path d="M55,6.84a4.75,4.75,0,0,0,9.47,0,4.75,4.75,0,0,0-9.47,0"/><path class="cls-1" d="M16.59,29.11c.93-2.25,3.87-9.12,6.7-13A7.9,7.9,0,0,1,26,13.37h.05a7.23,7.23,0,0,1,.9,0,5.94,5.94,0,0,1,3.19.83,4.59,4.59,0,0,1,2,4.18,11.44,11.44,0,0,1-.25,2.25,46.13,46.13,0,0,1-3.57,11.15A3,3,0,0,0,28,33.06a2.79,2.79,0,0,0,.07.64L29,38a3.18,3.18,0,0,0,1,1.69L58.15,64.73l1.76-.58,27-23.51a3.27,3.27,0,0,1,2-.81l.31,0a2.74,2.74,0,0,1,.5,0h.08a.63.63,0,0,0,.62-.58l.5-7V32a3.38,3.38,0,0,0-.26-1.29l-4.09-9.69a4,4,0,0,1-.31-1.56,3.53,3.53,0,0,1,.08-.79,8.6,8.6,0,0,1,1.21-3.09,3.84,3.84,0,0,1,3.26-1.79,5.93,5.93,0,0,1,1.86.34,4.18,4.18,0,0,1,2.35,2l6.26,11.88a4.22,4.22,0,0,1,.49,2V53.61a3.69,3.69,0,0,1-1.08,2.6L80.4,76.44A2.19,2.19,0,0,0,79.75,78v22.17H39.52l-.86-21.42A2.37,2.37,0,0,0,38,77.2l-20-20.4A4.1,4.1,0,0,1,16.76,54L16.29,30.7v-.08a3.91,3.91,0,0,1,.3-1.51l.18.07.18.08a3.51,3.51,0,0,0-.27,1.36v.07L17.14,54a3.74,3.74,0,0,0,1.06,2.52L38.26,76.94A2.77,2.77,0,0,1,39,78.75l.84,21H79.37V78a2.55,2.55,0,0,1,.76-1.84l20.23-20.24a3.25,3.25,0,0,0,1-2.32V30a3.81,3.81,0,0,0-.44-1.78L94.62,16.36a3.8,3.8,0,0,0-2.14-1.84,5.7,5.7,0,0,0-1.73-.32,3.45,3.45,0,0,0-2.94,1.63,8.23,8.23,0,0,0-1.16,3,3.49,3.49,0,0,0-.07.71,3.81,3.81,0,0,0,.28,1.41L91,30.59A3.78,3.78,0,0,1,91.25,32c0,.09,0,.18,0,.26l-.5,7a1,1,0,0,1-1,.93h-.13a3.19,3.19,0,0,0-.45,0h-.29a2.91,2.91,0,0,0-1.74.72l-27,23.56-2,.68L29.73,39.92A3.52,3.52,0,0,1,28.62,38l-.92-4.25a3.51,3.51,0,0,1-.07-.72A3.35,3.35,0,0,1,28,31.54a45.69,45.69,0,0,0,3.53-11,10.87,10.87,0,0,0,.24-2.18A4.2,4.2,0,0,0,30,14.45a5.62,5.62,0,0,0-3-.77,5.11,5.11,0,0,0-.62,0l-.22,0,0-.19.07.18a7.56,7.56,0,0,0-2.59,2.56,39.86,39.86,0,0,0-2.76,4.58c-1.77,3.35-3.28,6.9-3.89,8.4l-.18-.08Zm46.72,46.5v-.19a36,36,0,0,0-4.23.29A14.56,14.56,0,0,0,56,76.4a2.6,2.6,0,0,0-1.77,1.45v0l-.77,22.18h9.78l.26-24.63h-.19v.19h-.19l-.25,24.06h-9l.75-21.77h-.19l.19,0c.12-.46.69-.88,1.54-1.19a18.56,18.56,0,0,1,4.53-.84c.74-.06,1.4-.09,1.87-.1l.76,0v-.19h0Zm-33.46-36a9.75,9.75,0,0,0-2.76.47,5.34,5.34,0,0,0-2,1.11,3.27,3.27,0,0,0-1.05,2.2,2.53,2.53,0,0,0,0,.28,3.78,3.78,0,0,0,1.25,2.78L38.55,58.49l.26-.28L25.55,46.14a3.37,3.37,0,0,1-1.12-2.49,2.09,2.09,0,0,1,0-.25,2.89,2.89,0,0,1,.93-1.95,5.9,5.9,0,0,1,2.82-1.29A10,10,0,0,1,29.37,40c.3,0,.48,0,.48,0Zm59.75.63.08,0h0a4.59,4.59,0,0,1,3.48,4.49,4.54,4.54,0,0,1-1.58,3.46l-12,10.52.25.29,12-10.52a5,5,0,0,0-2.06-8.61h0l-.09,0Z"/><polyline class="cls-1" points="54.55 69.71 43.63 69.71 43.63 70.09 54.55 70.09"/><polyline class="cls-1" points="76.13 70.34 65.21 70.34 65.21 70.73 76.13 70.73"/><polyline class="cls-1" points="63.3 66.88 71.17 60.53 70.93 60.23 63.06 66.58"/><polyline class="cls-1" points="47.05 79.57 54.92 73.22 54.68 72.92 46.81 79.27"/><polyline class="cls-1" points="63.56 72.71 70.92 79.31 71.18 79.03 63.82 72.42"/><polyline class="cls-1" points="47.44 60.65 54.8 67.25 55.06 66.97 47.7 60.37"/><rect x="58.94" y="73.81" width="0.71" height="2.06"/><path class="cls-2" d="M60.39,63.3S56.84,64.7,57,68.12s-.38,4.32,1.27,5.34c1.45.89,3.19.21,3.94-3a3.6,3.6,0,0,0-.34-2.47,15,15,0,0,1-1.44-4.64"/><path d="M60.39,63.3l-.07-.18a6.93,6.93,0,0,0-1.77,1.12A4.88,4.88,0,0,0,56.77,68v.18h0c0,.51,0,1,0,1.36v1.14A4.82,4.82,0,0,0,57,72.4,2.88,2.88,0,0,0,59.41,74a2.28,2.28,0,0,0,1.73-.87,6.09,6.09,0,0,0,1.21-2.68,3.29,3.29,0,0,0,.1-.82A3.89,3.89,0,0,0,62,67.85a14.87,14.87,0,0,1-1.42-4.58l0-.23-.22.08.07.18-.19,0A15.38,15.38,0,0,0,61.66,68a3.52,3.52,0,0,1,.4,1.61,3,3,0,0,1-.08.73,5.7,5.7,0,0,1-1.13,2.52,1.86,1.86,0,0,1-1.44.73,2.06,2.06,0,0,1-1.08-.33,2.15,2.15,0,0,1-1-1,4.67,4.67,0,0,1-.18-1.63c0-.33,0-.71,0-1.14s0-.86,0-1.37h0V68a4.49,4.49,0,0,1,1.65-3.42,6.57,6.57,0,0,1,1.15-.8,3.32,3.32,0,0,1,.37-.19l.14-.06-.07-.18-.19,0Z"/><path class="cls-3" d="M43,38.42C41.64,35,49.62,28,52.44,25.74a1.29,1.29,0,0,0,.31-1.62,10.86,10.86,0,0,1-.94-4.49,7.63,7.63,0,0,1,2-5.47c4.81-5.16,7.3.52,7.3.52a10.62,10.62,0,0,1-3.49,10.17,1.27,1.27,0,0,0-.3,1.57c1.06,2,3.4,6.82,3.79,11.11.34,3.73-1.13,5-2.14,5.38a.62.62,0,0,1-.84-.62c.52-7.52-1-11.24-2.33-13a1.92,1.92,0,0,0-2.93-.19l-6.73,7a4.93,4.93,0,0,0-1.29,2.51l-.24,1.34c-1.9,1.4-1.65-1.52-1.65-1.52M59.75,15.07s-.5-4.19-4.06-.77.26,8,.26,8c3.8-.13,3.8-7.23,3.8-7.23"/><path d="M11.75,115.5H9.94a.41.41,0,0,1-.42-.31L9,113.79H5.51L5,115.19a.45.45,0,0,1-.44.31H2.72c-.21,0-.27-.1-.18-.31l3.29-8.4a.44.44,0,0,1,.43-.32h2a.46.46,0,0,1,.44.32l3.29,8.4C12,115.4,12,115.5,11.75,115.5Zm-3.27-3-1.25-3.16L6,112.54Z"/><path d="M21.47,108.19v5.6a1.51,1.51,0,0,1-1.71,1.71h-6.3a.27.27,0,0,1-.31-.31v-8.4a.28.28,0,0,1,.31-.32h6.3A1.52,1.52,0,0,1,21.47,108.19Zm-2.57.15a.55.55,0,0,0-.62-.62H15.71v6.53h2.57a.54.54,0,0,0,.62-.62Z"/><path d="M31.48,108.19v1.71a1.51,1.51,0,0,1-1.71,1.71h-4v3.58a.28.28,0,0,1-.32.31H23.47a.27.27,0,0,1-.31-.31v-8.4a.28.28,0,0,1,.31-.32h6.3A1.52,1.52,0,0,1,31.48,108.19Zm-2.56.15a.55.55,0,0,0-.63-.62H25.73v2.65h2.56a.56.56,0,0,0,.63-.63Z"/><path d="M41.16,106.79v8.4a.28.28,0,0,1-.32.31H38.9a.27.27,0,0,1-.31-.31v-3.58H35.48v3.58a.28.28,0,0,1-.32.31H33.22a.27.27,0,0,1-.31-.31v-8.4a.28.28,0,0,1,.31-.32h1.94a.29.29,0,0,1,.32.32v3.58h3.11v-3.58a.28.28,0,0,1,.31-.32h1.94A.29.29,0,0,1,41.16,106.79Z"/><path d="M51.58,115.5h-1.8a.43.43,0,0,1-.43-.31l-.54-1.4H45.34l-.54,1.4a.45.45,0,0,1-.44.31h-1.8c-.21,0-.28-.1-.19-.31l3.3-8.4a.44.44,0,0,1,.43-.32H48a.46.46,0,0,1,.44.32l3.3,8.4C51.85,115.4,51.79,115.5,51.58,115.5Zm-3.27-3-1.24-3.16-1.23,3.16Z"/><path d="M65.13,106.79v7a1.51,1.51,0,0,1-1.71,1.71h-4.9a1.51,1.51,0,0,1-1.71-1.71v-7a.28.28,0,0,1,.31-.32h1.94a.28.28,0,0,1,.31.32v6.84a.55.55,0,0,0,.63.62h1.94a.54.54,0,0,0,.62-.62v-6.84a.28.28,0,0,1,.31-.32h1.95A.28.28,0,0,1,65.13,106.79Z"/><path d="M75.15,111.3v2.49a1.51,1.51,0,0,1-1.71,1.71h-5a1.51,1.51,0,0,1-1.71-1.71v-5.6a1.52,1.52,0,0,1,1.71-1.72h5.76a.28.28,0,0,1,.31.32v.62a.27.27,0,0,1-.31.31H69.94a.55.55,0,0,0-.62.62v5.29a.55.55,0,0,0,.62.62h2a.55.55,0,0,0,.63-.62V111.3a.27.27,0,0,1,.31-.31h1.94A.27.27,0,0,1,75.15,111.3Z"/><path d="M85.19,115.5h-1.8a.43.43,0,0,1-.43-.31l-.54-1.4H79l-.54,1.4a.45.45,0,0,1-.44.31h-1.8c-.21,0-.28-.1-.19-.31l3.3-8.4a.44.44,0,0,1,.43-.32h1.94a.46.46,0,0,1,.44.32l3.3,8.4C85.46,115.4,85.4,115.5,85.19,115.5Zm-3.27-3-1.24-3.16-1.23,3.16Z"/><path d="M94.84,106.79v8.4a.28.28,0,0,1-.31.31h-2a.5.5,0,0,1-.47-.31l-3-5.93v5.93a.28.28,0,0,1-.31.31H86.9a.27.27,0,0,1-.31-.31v-8.4a.28.28,0,0,1,.31-.32h1.95a.5.5,0,0,1,.46.32l3,5.92v-5.92a.28.28,0,0,1,.31-.32h2A.28.28,0,0,1,94.84,106.79Z"/><path d="M105,108.19v5.6a1.51,1.51,0,0,1-1.71,1.71H97a.28.28,0,0,1-.31-.31v-8.4a.28.28,0,0,1,.31-.32h6.31A1.52,1.52,0,0,1,105,108.19Zm-2.57.15a.55.55,0,0,0-.62-.62H99.22v6.53h2.57a.55.55,0,0,0,.62-.62Z"/><path d="M115.27,115.5h-1.8a.43.43,0,0,1-.43-.31l-.54-1.4H109l-.55,1.4a.45.45,0,0,1-.44.31h-1.8c-.21,0-.27-.1-.18-.31l3.29-8.4a.44.44,0,0,1,.43-.32h1.94a.46.46,0,0,1,.44.32l3.3,8.4C115.55,115.4,115.48,115.5,115.27,115.5Zm-3.26-3-1.25-3.16-1.23,3.16Z"/></svg>