<svg id="Layer_1" data-name="Layer 1" xmlns="http://www.w3.org/2000/svg" viewBox="0 0 512 512"><defs><style>.cls-1{fill:#fff;}.cls-2{stroke:#000;stroke-linecap:round;stroke-linejoin:round;stroke-width:1.32px;}.cls-3{fill:#f9e92f;}.cls-4{fill:#e42528;}</style></defs><rect class="cls-1" x="0.5" y="0.5" width="511" height="511" rx="47.36"/><path d="M209.76,123.08a4.26,4.26,0,0,1-1,4.17c-7.81,8.1-37.62,42.91-.78,69.55,36,26,70.83.73,81.31-16.25a5.11,5.11,0,1,1,8.43,5.76c-9.44,12.46-47.47,55.76-96.81,19.08-46.89-34.85-12-72.09,2-84.32a4.28,4.28,0,0,1,6.92,2"/><path d="M230.7,77s29.82-16.68,30.83,4c0,0-4.75,23.39-8.65,36.47a4.24,4.24,0,0,0,3.28,5.37l29.64,5.6a28.58,28.58,0,0,1,17.78,11.24l27.09,37.15a4.35,4.35,0,0,0,4.35,1.71l11.67-2.27a3.48,3.48,0,0,1,2.41,6.43l-14.78,8.57a11.33,11.33,0,0,1-14.65-2.88l-25.18-32.66a23.29,23.29,0,0,0-16.07-9c-13.21-1.35-36.36-4.07-48.49-7.48a9.4,9.4,0,0,1-6.84-9.73l2.27-31.07a3.8,3.8,0,0,0-3.56-4.08l-5.31-.33A14.32,14.32,0,0,0,204.82,99l-21.27,24.21a5.51,5.51,0,0,1-8.41-7.11L198.78,87A15.87,15.87,0,0,1,208,81.45Z"/><path d="M240.13,48.3c0,9.55,8.45,17.29,18.88,17.29s18.87-7.74,18.87-17.29S269.43,31,259,31s-18.88,7.74-18.88,17.3"/><path class="cls-2" d="M87.12,137c3.71-9,15.41-36.34,26.65-52,3.77-5.22,7.44-9.16,11-10.71l.09,0,.09,0a26,26,0,0,1,3.61-.23c3.31,0,8.38.53,12.7,3.31S149.05,85.21,149,94a45.32,45.32,0,0,1-1,9c-4.72,23.25-11,37.93-14.21,44.4a12.07,12.07,0,0,0-1.25,5.35,11.76,11.76,0,0,0,.28,2.57l3.65,16.92a12.48,12.48,0,0,0,3.92,6.72l112.18,99.94,7-2.33L367,182.89a13.14,13.14,0,0,1,7.84-3.25c.41,0,.83,0,1.25,0a15,15,0,0,1,2,.12l.31,0a2.48,2.48,0,0,0,2.44-2.31l2-27.89c0-.31,0-.63,0-.95a13.28,13.28,0,0,0-1-5.13l-16.3-38.59a16,16,0,0,1-.94-9.34,34,34,0,0,1,4.85-12.33,15.22,15.22,0,0,1,13-7.11,23,23,0,0,1,7.41,1.34,16.68,16.68,0,0,1,9.35,8l24.95,47.33a16.64,16.64,0,0,1,1.93,7.79v93.94a14.64,14.64,0,0,1-4.28,10.34l-80.57,80.57a8.92,8.92,0,0,0-2.6,6.27V420H178.41L175,334.7a9.45,9.45,0,0,0-2.69-6.21L92.43,247.22a16.24,16.24,0,0,1-4.66-11.07l-1.84-92.86V143a15.66,15.66,0,0,1,1.19-6l.7.29.71.3A13.93,13.93,0,0,0,87.45,143v.28l1.83,92.87a14.74,14.74,0,0,0,4.23,10l79.88,81.27a11,11,0,0,1,3.12,7.22l3.35,83.81H337.1V331.71a10.38,10.38,0,0,1,3-7.35l80.57-80.57a13.1,13.1,0,0,0,3.84-9.26V140.59a15.17,15.17,0,0,0-1.75-7.08l-25-47.33a15.13,15.13,0,0,0-8.5-7.3,21.83,21.83,0,0,0-6.91-1.27c-5.5,0-9.14,2.76-11.71,6.46a32.53,32.53,0,0,0-4.6,11.76,13.65,13.65,0,0,0-.29,2.85,14.39,14.39,0,0,0,1.13,5.59l16.3,38.6a14.8,14.8,0,0,1,1.16,5.72c0,.35,0,.71,0,1.06l-2,27.89a4,4,0,0,1-4,3.72l-.51,0a13.49,13.49,0,0,0-1.8-.11c-.39,0-.77,0-1.16,0A11.71,11.71,0,0,0,368,184L260.4,277.84l-8.14,2.72L139.42,180a14,14,0,0,1-4.4-7.54l-3.65-16.92a12.91,12.91,0,0,1-.31-2.89,13.6,13.6,0,0,1,1.4-6c3.15-6.37,9.39-20.92,14.09-44A44.12,44.12,0,0,0,147.5,94c0-8.36-3.17-12.83-7.09-15.38s-8.71-3.07-11.87-3.06c-1,0-1.87,0-2.46.1s-.91.11-.91.11l-.12-.75.3.7c-3,1.29-6.66,5.06-10.34,10.19a160.41,160.41,0,0,0-11,18.26C97,117.47,91,131.6,88.53,137.55l-.71-.29Zm186,185.19v-.76a142.73,142.73,0,0,0-16.85,1.14,59.5,59.5,0,0,0-12.21,2.74c-3.5,1.32-6.27,3.07-7.06,5.77l0,.09L234,419.47H272.9l1-98.07h-.77v.76h-.76l-1,95.79H235.53l3-86.66-.76,0,.73.2c.47-1.84,2.76-3.51,6.13-4.75,5-1.87,12.18-2.84,18.05-3.31,2.94-.24,5.56-.36,7.44-.42s3-.06,3-.06v-.76h0ZM139.92,178.7a39.31,39.31,0,0,0-11,1.88A21.18,21.18,0,0,0,121,185a13,13,0,0,0-4.19,8.74c0,.37,0,.74,0,1.11a15,15,0,0,0,5,11.07l52.8,48,1-1.13-52.8-48a13.51,13.51,0,0,1-4.48-9.95c0-.32,0-.65,0-1a11.44,11.44,0,0,1,3.71-7.75c3-2.86,7.51-4.37,11.23-5.13a40.15,40.15,0,0,1,4.71-.66c1.2-.1,1.91-.11,1.91-.11Zm237.92,2.52.33.08h0A18.38,18.38,0,0,1,385.74,213l-47.88,41.89,1,1.15,47.87-41.9a19.9,19.9,0,0,0-8.21-34.29h0l-.33-.08Z"/><polyline class="cls-2" points="238.28 298.65 194.81 298.65 194.81 300.17 238.28 300.17"/><polyline class="cls-2" points="324.21 301.18 280.74 301.18 280.74 302.7 324.21 302.7"/><polyline class="cls-2" points="273.13 287.37 304.47 262.09 303.51 260.91 272.18 286.18"/><polyline class="cls-2" points="208.43 337.92 239.77 312.64 238.81 311.45 207.47 336.73"/><polyline class="cls-2" points="274.17 310.59 303.49 336.88 304.5 335.74 275.18 309.46"/><polyline class="cls-2" points="209.97 262.57 239.29 288.86 240.3 287.72 210.99 261.44"/><rect x="255.75" y="314.97" width="2.81" height="8.2"/><path class="cls-3" d="M261.53,273.13s-14.15,5.56-13.64,19.21-1.52,17.18,5.05,21.23c5.76,3.54,12.69.87,15.67-12.12a14.26,14.26,0,0,0-1.34-9.84,60.4,60.4,0,0,1-5.74-18.48"/><path d="M261.53,273.13l-.28-.72a27.29,27.29,0,0,0-7.05,4.47,19.28,19.28,0,0,0-7.09,14.74v.76l.77,0-.77,0c.08,2,.09,3.8.1,5.41s0,3.22,0,4.56c0,2.95.09,5.14.83,7a10,10,0,0,0,4.52,4.84,9.73,9.73,0,0,0,5.08,1.55,9.1,9.1,0,0,0,6.91-3.44c2-2.33,3.7-5.83,4.83-10.7a14.85,14.85,0,0,0,.36-3.25,15.29,15.29,0,0,0-1.78-7.11A59.81,59.81,0,0,1,262.29,273l-.16-.94-.88.34.28.72-.75.12A61.48,61.48,0,0,0,266.59,292a13.74,13.74,0,0,1,1.61,6.4,13,13,0,0,1-.33,2.91c-1.08,4.71-2.68,8-4.49,10a7.6,7.6,0,0,1-5.76,2.93,8.28,8.28,0,0,1-4.28-1.32c-2.21-1.37-3.29-2.56-3.9-4.1s-.73-3.57-.73-6.49c0-1.32,0-2.83,0-4.56s0-3.43-.09-5.46v0l0-.67A17.84,17.84,0,0,1,255.2,278a26.31,26.31,0,0,1,4.57-3.18c.62-.35,1.14-.6,1.5-.76l.54-.25-.28-.7-.75.12Z"/><path class="cls-4" d="M192.28,174.05c-5.43-13.77,26.36-41.32,37.61-50.52a5.11,5.11,0,0,0,1.24-6.42c-2.63-4.78-3.53-11.85-3.75-17.88a30.31,30.31,0,0,1,8.12-21.8c19.14-20.53,29.07,2.09,29.07,2.09,3.81,22.14-7.93,35.34-13.91,40.49a5.08,5.08,0,0,0-1.19,6.26c4.23,8,13.54,27.15,15.1,44.24,1.34,14.83-4.5,19.78-8.55,21.42a2.45,2.45,0,0,1-3.33-2.46c2.07-30-4-44.79-9.27-51.87a7.66,7.66,0,0,0-11.69-.76l-26.8,27.93a19.4,19.4,0,0,0-5.1,10l-1,5.35c-7.58,5.57-6.57-6.06-6.57-6.06M259,81s-2-16.68-16.18-3,1,31.84,1,31.84C259,109.35,259,81,259,81"/><path d="M67.82,481H60.64a1.7,1.7,0,0,1-1.7-1.24l-2.17-5.58H43l-2.18,5.58A1.78,1.78,0,0,1,39.06,481H31.88c-.82,0-1.08-.41-.72-1.24L44.28,446.3a1.69,1.69,0,0,1,1.7-1.24h7.75a1.8,1.8,0,0,1,1.75,1.24L68.6,479.76C68.91,480.59,68.65,481,67.82,481Zm-13-11.77-5-12.6L45,469.23Z"/><path d="M106.55,451.87v22.31q0,6.82-6.81,6.82H74.64a1.09,1.09,0,0,1-1.24-1.24V446.3a1.09,1.09,0,0,1,1.24-1.24h25.1Q106.55,445.06,106.55,451.87Zm-10.22.63A2.19,2.19,0,0,0,93.85,450H83.62v26H93.85a2.19,2.19,0,0,0,2.48-2.48Z"/><path d="M146.42,451.87v6.82q0,6.82-6.82,6.82H123.49v14.25a1.09,1.09,0,0,1-1.24,1.24H114.5a1.1,1.1,0,0,1-1.24-1.24V446.3a1.1,1.1,0,0,1,1.24-1.24h25.1Q146.41,445.06,146.42,451.87Zm-10.23.63a2.19,2.19,0,0,0-2.48-2.48H123.49v10.53h10.22a2.19,2.19,0,0,0,2.48-2.48Z"/><path d="M184.94,446.3v33.46A1.09,1.09,0,0,1,183.7,481H176a1.1,1.1,0,0,1-1.24-1.24V465.51H162.32v14.25a1.09,1.09,0,0,1-1.24,1.24h-7.74a1.1,1.1,0,0,1-1.25-1.24V446.3a1.1,1.1,0,0,1,1.25-1.24h7.74a1.09,1.09,0,0,1,1.24,1.24v14.25h12.39V446.3a1.1,1.1,0,0,1,1.24-1.24h7.75A1.09,1.09,0,0,1,184.94,446.3Z"/><path d="M226.45,481h-7.17a1.7,1.7,0,0,1-1.71-1.24l-2.17-5.58H201.62l-2.17,5.58a1.8,1.8,0,0,1-1.76,1.24h-7.18c-.82,0-1.08-.41-.72-1.24l13.12-33.46a1.69,1.69,0,0,1,1.7-1.24h7.75a1.8,1.8,0,0,1,1.75,1.24l13.12,33.46C227.54,480.59,227.28,481,226.45,481Zm-13-11.77-5-12.6-4.9,12.6Z"/><path d="M280.42,446.3v27.88q0,6.82-6.82,6.82H254.08q-6.81,0-6.82-6.82V446.3a1.1,1.1,0,0,1,1.24-1.24h7.75a1.09,1.09,0,0,1,1.24,1.24v27.26A2.19,2.19,0,0,0,260,476h7.74a2.19,2.19,0,0,0,2.48-2.48V446.3a1.09,1.09,0,0,1,1.24-1.24h7.75A1.1,1.1,0,0,1,280.42,446.3Z"/><path d="M320.33,464.27v9.91q0,6.82-6.82,6.82H293.68q-6.81,0-6.81-6.82V451.87q0-6.81,6.81-6.81h22.93a1.09,1.09,0,0,1,1.24,1.24v2.48a1.1,1.1,0,0,1-1.24,1.24h-17a2.19,2.19,0,0,0-2.48,2.48v21.06a2.19,2.19,0,0,0,2.48,2.48h8.06a2.18,2.18,0,0,0,2.47-2.48v-9.29a1.1,1.1,0,0,1,1.25-1.24h7.74A1.09,1.09,0,0,1,320.33,464.27Z"/><path d="M360.3,481h-7.18a1.69,1.69,0,0,1-1.7-1.24l-2.17-5.58H335.46l-2.17,5.58a1.8,1.8,0,0,1-1.75,1.24h-7.18c-.83,0-1.09-.41-.73-1.24l13.12-33.46a1.7,1.7,0,0,1,1.7-1.24h7.75A1.8,1.8,0,0,1,348,446.3l13.11,33.46C361.38,480.59,361.13,481,360.3,481Zm-13-11.77-5-12.6-4.91,12.6Z"/><path d="M398.72,446.3v33.46a1.09,1.09,0,0,1-1.24,1.24h-7.75a2,2,0,0,1-1.86-1.24l-11.77-23.6v23.6a1.09,1.09,0,0,1-1.24,1.24h-7.75a1.1,1.1,0,0,1-1.24-1.24V446.3a1.1,1.1,0,0,1,1.24-1.24h7.75a2,2,0,0,1,1.86,1.24l11.77,23.6V446.3a1.1,1.1,0,0,1,1.24-1.24h7.75A1.09,1.09,0,0,1,398.72,446.3Z"/><path d="M439.1,451.87v22.31q0,6.82-6.82,6.82h-25.1a1.1,1.1,0,0,1-1.24-1.24V446.3a1.1,1.1,0,0,1,1.24-1.24h25.1Q439.11,445.06,439.1,451.87Zm-10.23.63a2.19,2.19,0,0,0-2.48-2.48H416.17v26h10.22a2.19,2.19,0,0,0,2.48-2.48Z"/><path d="M480.1,481h-7.18a1.69,1.69,0,0,1-1.7-1.24l-2.17-5.58H455.26l-2.17,5.58a1.8,1.8,0,0,1-1.76,1.24h-7.17c-.83,0-1.09-.41-.73-1.24l13.12-33.46a1.7,1.7,0,0,1,1.7-1.24H466a1.8,1.8,0,0,1,1.76,1.24l13.11,33.46C481.18,480.59,480.92,481,480.1,481Zm-13-11.77-4.95-12.6-4.91,12.6Z"/></svg>