<svg id="Layer_1" data-name="Layer 1" xmlns="http://www.w3.org/2000/svg" viewBox="0 0 10 10"><defs><style>.cls-1{fill:#1353ba;}.cls-2{fill:#e5cb10;}.cls-3{fill:#193669;}.cls-4{fill:#ff4041;}</style></defs><path class="cls-1" d="M4.8,5.72a1.54,1.54,0,0,1-1-.61.21.21,0,0,1,0-.28,1.5,1.5,0,0,1,1-.61,1.47,1.47,0,0,1,1,.61.24.24,0,0,1,0,.28A1.48,1.48,0,0,1,4.8,5.72ZM4.27,5a.82.82,0,0,0,.53.27A.83.83,0,0,0,5.34,5a.84.84,0,0,0-.54-.28A.84.84,0,0,0,4.27,5Z"/><path class="cls-1" d="M5,5a.13.13,0,0,1-.12.12h0A.12.12,0,0,1,4.66,5a.12.12,0,0,1,.12-.12h0A.12.12,0,0,1,5,5Z"/><path class="cls-2" d="M7.87,7.29,7.11,8,6.77,7.7l.12-.12h0l.52-.52h0l.11-.11.3.31h0Z"/><path class="cls-3" d="M9.56,9.75h0a.54.54,0,0,1-.75,0h0L7.63,8.57h0l-.35-.36L8,7.45,9.56,9A.54.54,0,0,1,9.56,9.75Z"/><path class="cls-4" d="M6.41,3.35a3.48,3.48,0,0,0-.28-.24,2.27,2.27,0,0,0-2.65,0h0A2.25,2.25,0,0,0,2.6,4.4h0a2.32,2.32,0,0,0,0,1.28h0A2.33,2.33,0,0,0,3.69,7h0a2.25,2.25,0,0,0,2.45-.15h0a1.86,1.86,0,0,0,.26-.23A2.29,2.29,0,0,0,6.41,3.35ZM6.14,5.78a1.33,1.33,0,0,1-.23.3,1.55,1.55,0,0,1-2.2,0h0l0,0h0V6h0l0,0,0,0h0v0l0,0,0,0,0-.06A1.56,1.56,0,0,1,5.9,3.85h0a1.57,1.57,0,0,1,.23,1.92Z"/><path class="cls-3" d="M7.16,7l-.35.36L6.4,6.92l.18-.17.17-.19Z"/><path class="cls-3" d="M7.68.32A.36.36,0,0,0,7.41.2H1.52a.4.4,0,0,0-.39.39V8.14a.39.39,0,0,0,.39.39H7.26L7,8.3H7l-.5-.5a.14.14,0,0,1,0-.17l.12-.12-.43-.44L6,7.17a2.48,2.48,0,0,1-2.42,0H2a.11.11,0,0,1-.12-.11A.12.12,0,0,1,2,7H3.25a2.5,2.5,0,0,1-.8-1.12H2a.11.11,0,0,1-.12-.11A.12.12,0,0,1,2,5.6h.37a2.6,2.6,0,0,1,0-1.11H2a.12.12,0,0,1-.12-.12A.12.12,0,0,1,2,4.25h.4A2.54,2.54,0,0,1,3,3.18l.05,0H2A.12.12,0,0,1,1.88,3,.12.12,0,0,1,2,2.9H3.37a2.48,2.48,0,0,1,2.87,0h.69A.12.12,0,0,1,7.05,3a.12.12,0,0,1-.12.12h-.4l0,0a2.53,2.53,0,0,1,.31,3.18l.44.44.11-.11a.14.14,0,0,1,.17,0h0l.19.19V.59A.36.36,0,0,0,7.68.32ZM6.93,1.79H2a.12.12,0,0,1-.12-.12A.12.12,0,0,1,2,1.55H6.93a.12.12,0,0,1,.12.12A.12.12,0,0,1,6.93,1.79Z"/></svg>