<svg id="Layer_1" data-name="Layer 1" xmlns="http://www.w3.org/2000/svg" viewBox="0 0 10 10"><defs><style>.cls-1{fill:#193669;}.cls-2{fill:#e5cb10;}.cls-3{fill:#1353ba;}.cls-4{fill:#ff4041;}</style></defs><rect class="cls-1" x="0.03" y="1.68" width="2.02" height="0.47" transform="translate(-1.09 1.47) rotate(-49.68)"/><rect class="cls-1" x="3.79" y="8.55" width="2.02" height="0.47"/><rect class="cls-1" x="8.77" y="0.96" width="0.47" height="2.02" transform="translate(0.54 5.63) rotate(-35.72)"/><path class="cls-2" d="M6.14,2.25h0a3,3,0,0,1,1.39-.69h.14l.12,0a.86.86,0,0,0,.38-.1l1,1.43A.71.71,0,0,0,9,3.29c0,.3-.26.52-.66.83l0,0L7.68,5.47a.31.31,0,0,1-.28.18.28.28,0,0,1-.13,0,.3.3,0,0,1-.14-.11.38.38,0,0,0,0-.21.29.29,0,0,1,0-.09l.24-.52a.07.07,0,0,0,0-.08.05.05,0,0,0-.08,0l-.64.45a.45.45,0,0,0-.32.22h0l-.15.11V4.83l.68-.47a.13.13,0,0,0-.08-.23.1.1,0,0,0-.07,0l-.53.37V3.89l.41-.29a.09.09,0,0,0,0-.08.1.1,0,0,0,0-.09.11.11,0,0,0-.1-.06.09.09,0,0,0-.07,0l-.28.19a.41.41,0,0,0-.3-.32l.28-.2A.1.1,0,0,0,6.15,3a.1.1,0,0,0,0-.09A.11.11,0,0,0,6,2.84L6,2.86l-.54.38A.41.41,0,0,0,5.14,3Z"/><path class="cls-3" d="M5,3.09a.27.27,0,0,1,.25.18h0v2.3a.12.12,0,0,0,.12.13.13.13,0,0,0,.13-.13V3.47a.31.31,0,0,1,.18-.07A.27.27,0,0,1,6,3.67V5.79a.08.08,0,0,0,0,.07.08.08,0,0,0,.09,0l.29-.49a.33.33,0,0,1,.27-.15.26.26,0,0,1,.15,0A.31.31,0,0,1,7,5.65L6.2,6.89s0,0,0,0c0,.5-.08.82-.3,1a.74.74,0,0,0-.17.45H4a.81.81,0,0,0-.23-.5c-.42-.37-.33-1.52-.32-1.64V4.57a.27.27,0,0,1,.39-.24V5.74a.13.13,0,0,0,.26,0V4.08s0,0,0,0V3.88a.27.27,0,0,1,.44-.21V5.8a.12.12,0,0,0,.13.12.12.12,0,0,0,.12-.12V3.36A.27.27,0,0,1,5,3.09Z"/><path class="cls-4" d="M2.44,1.67H2.6c.55,0,1.3.73,1.38.81v0l.71.59h0a.44.44,0,0,0-.17.34l-.39-.32a.11.11,0,0,0-.08,0,.14.14,0,0,0-.1,0,.1.1,0,0,0,0,.09.1.1,0,0,0,0,.09l.23.19a.4.4,0,0,0-.27.34L3.64,3.6a.11.11,0,0,0-.08,0,.12.12,0,0,0-.1.05.13.13,0,0,0,0,.18l.45.38v0a.39.39,0,0,0-.23-.07.41.41,0,0,0-.36.2l0,0a.11.11,0,0,0-.08,0,.13.13,0,0,0-.08.23l.13.11v.58L2.7,4.73H2.61a.08.08,0,0,0,0,.09l.19.53a.32.32,0,0,1-.19.4l-.1,0h0a.3.3,0,0,1-.29-.21C2,5.1,1.72,4.22,1.72,4.2s0,0,0,0c-.38-.35-.59-.59-.6-.89a1,1,0,0,0-.3-.49L1.92,1.48A1,1,0,0,0,2.44,1.67Z"/></svg>