<svg id="Layer_1" data-name="Layer 1" xmlns="http://www.w3.org/2000/svg" viewBox="0 0 110 150.35"><defs><style>.cls-1{opacity:0.3;}.cls-2{fill:#1353ba;}</style></defs><g class="cls-1"><path class="cls-2" d="M125,153.61V177.7c0,13.79-6.81,19.6-20.1,22.26v-9.31c8.47-3.48,8.47-5.48,8.47-14.11h-10V153.61Zm-28.41,0v25.25c0,7-1.33,11.46-7,15.78a24.79,24.79,0,0,1-13.46,4.65v-8.8c8.14-3.16,9.14-4.82,9.14-14H75V153.61Z" transform="translate(-15.04 -49.61)"/></g><g class="cls-1"><path class="cls-2" d="M15,49.61V73.7C15,87.49,21.85,93.3,35.14,96V86.65c-8.47-3.48-8.47-5.48-8.47-14.11h10V49.61Zm28.4,0V74.86c0,7,1.33,11.46,7,15.78a24.79,24.79,0,0,0,13.46,4.65v-8.8c-8.14-3.16-9.14-4.82-9.14-13.95H65V49.61Z" transform="translate(-15.04 -49.61)"/></g></svg>