<svg id="Layer_1" data-name="Layer 1" xmlns="http://www.w3.org/2000/svg" viewBox="0 0 486 146"><defs><style>.cls-1{fill:#fff;}.cls-2{fill:#121212;}</style></defs><rect class="cls-1" x="0.28" width="485.44" height="146" rx="28.04"/><path class="cls-2" d="M124.1,78.93c-2.34-11.87,8-18.21,8.74-18.65a19.48,19.48,0,0,0-5.28-4.87c-6.17-3.84-13.69-4.2-18.16-2.23l-.13,0a17.07,17.07,0,0,1-13.69,0l-.13,0c-4.47-2-12-1.61-18.16,2.23S65.12,67.93,68.17,84.57A51.72,51.72,0,0,0,82.3,111.32a12,12,0,0,0,12.25,1.52c4.36-1.9,6.35-2.23,7.22-2.21.44,0,.87,0,1.31,0,.87,0,2.86.31,7.22,2.21a12,12,0,0,0,12.25-1.52,51.59,51.59,0,0,0,12.09-19.15A18.1,18.1,0,0,1,124.1,78.93Z"/><path class="cls-2" d="M100.46,52.55S98.51,36,117.19,33l-.08,2.22a18,18,0,0,1-16.65,17.33Z"/><path class="cls-2" d="M175.05,38.12a17.1,17.1,0,0,1-.77,5.41A10.18,10.18,0,0,1,172,47.45a9.66,9.66,0,0,1-3.72,2.39,15.32,15.32,0,0,1-5.27.81h-4.8a1.21,1.21,0,0,1-.69-.26,1.07,1.07,0,0,1-.36-.93v-22a1.07,1.07,0,0,1,.36-.93,1.21,1.21,0,0,1,.69-.26h5.12a14.38,14.38,0,0,1,5.24.85,9.54,9.54,0,0,1,3.57,2.4,10.12,10.12,0,0,1,2.17,3.72A15,15,0,0,1,175.05,38.12Zm-2.46.12a13.75,13.75,0,0,0-.54-3.94,8.24,8.24,0,0,0-1.65-3.13,7.6,7.6,0,0,0-2.83-2.06,10.94,10.94,0,0,0-4.36-.75h-3.74V48.6h3.76a12.85,12.85,0,0,0,4.2-.61,6.93,6.93,0,0,0,2.87-1.89A8.45,8.45,0,0,0,172,42.87,16.6,16.6,0,0,0,172.59,38.24Z"/><path class="cls-2" d="M195.19,41.58a12.66,12.66,0,0,1-.52,3.74,8.74,8.74,0,0,1-1.57,3,7.19,7.19,0,0,1-2.61,2,8.74,8.74,0,0,1-3.63.71,9,9,0,0,1-3.49-.63,6.71,6.71,0,0,1-2.5-1.81,7.61,7.61,0,0,1-1.5-2.85,13.26,13.26,0,0,1-.5-3.78,12.71,12.71,0,0,1,.52-3.74,8.14,8.14,0,0,1,1.56-3,7.16,7.16,0,0,1,2.6-2,10.06,10.06,0,0,1,7.14-.07A6.45,6.45,0,0,1,193.18,35a7.91,7.91,0,0,1,1.5,2.85A12.91,12.91,0,0,1,195.19,41.58Zm-2.37.21a12.91,12.91,0,0,0-.28-2.76,6.83,6.83,0,0,0-.94-2.33,4.69,4.69,0,0,0-1.77-1.59,6.61,6.61,0,0,0-5.39,0,4.88,4.88,0,0,0-1.82,1.51,6.59,6.59,0,0,0-1,2.29,11.11,11.11,0,0,0-.34,2.84,13.33,13.33,0,0,0,.28,2.79,6.7,6.7,0,0,0,.94,2.32,4.75,4.75,0,0,0,1.77,1.58A5.87,5.87,0,0,0,187,49a6,6,0,0,0,2.64-.54,4.94,4.94,0,0,0,1.81-1.51,6.4,6.4,0,0,0,1-2.27A11.27,11.27,0,0,0,192.82,41.79Z"/><path class="cls-2" d="M222.61,33.22a.88.88,0,0,1,0,.21c0,.08,0,.17-.07.27l-5.26,16.57a.48.48,0,0,1-.14.24.69.69,0,0,1-.28.16,2.13,2.13,0,0,1-.44.07l-.65,0a6.32,6.32,0,0,1-.67,0,3.29,3.29,0,0,1-.46-.08.87.87,0,0,1-.29-.15.68.68,0,0,1-.14-.23l-4-13.43,0-.15,0,.15-3.69,13.43a.38.38,0,0,1-.15.24.75.75,0,0,1-.31.16,2.74,2.74,0,0,1-.48.07l-.64,0a5.85,5.85,0,0,1-.64,0,3.53,3.53,0,0,1-.44-.08.68.68,0,0,1-.27-.15.53.53,0,0,1-.13-.23L198.18,33.7a1.12,1.12,0,0,1-.08-.26,1,1,0,0,1,0-.22.52.52,0,0,1,.05-.23.4.4,0,0,1,.19-.14,2,2,0,0,1,.34-.07l.51,0a5.48,5.48,0,0,1,.64,0,1.33,1.33,0,0,1,.37.09.28.28,0,0,1,.17.15,1.12,1.12,0,0,1,.1.22l4.49,14.86,0,.13,0-.13,4.08-14.86a.74.74,0,0,1,.1-.22.36.36,0,0,1,.19-.15,1.09,1.09,0,0,1,.34-.09,4.11,4.11,0,0,1,.55,0,3.79,3.79,0,0,1,.53,0,1.28,1.28,0,0,1,.34.09.3.3,0,0,1,.18.15,1.12,1.12,0,0,1,.1.22l4.4,14.86,0,.13,0-.13,4.47-14.86a1.12,1.12,0,0,1,.1-.22.38.38,0,0,1,.2-.15,1.33,1.33,0,0,1,.37-.09,4.93,4.93,0,0,1,.61,0l.49,0a1.08,1.08,0,0,1,.3.08.34.34,0,0,1,.15.14A.67.67,0,0,1,222.61,33.22Z"/><path class="cls-2" d="M240.73,50.27a.5.5,0,0,1,0,.21.45.45,0,0,1-.18.15,1.18,1.18,0,0,1-.34.09,2.7,2.7,0,0,1-.54,0,2.81,2.81,0,0,1-.55,0,1.18,1.18,0,0,1-.34-.09.45.45,0,0,1-.18-.15.38.38,0,0,1-.05-.21V40.17a11,11,0,0,0-.25-2.56,5.17,5.17,0,0,0-.73-1.7,3.37,3.37,0,0,0-1.25-1.09,4,4,0,0,0-1.78-.38,4.41,4.41,0,0,0-2.59.92,13.84,13.84,0,0,0-2.73,2.71v12.2a.39.39,0,0,1-.06.21.35.35,0,0,1-.18.15,1.1,1.1,0,0,1-.33.09,2.92,2.92,0,0,1-.56,0,2.66,2.66,0,0,1-.53,0,1.26,1.26,0,0,1-.35-.09.35.35,0,0,1-.18-.15.5.5,0,0,1,0-.21v-17a.46.46,0,0,1,0-.2.32.32,0,0,1,.18-.16.92.92,0,0,1,.33-.1,3.49,3.49,0,0,1,.51,0,3.79,3.79,0,0,1,.53,0,.8.8,0,0,1,.32.1.35.35,0,0,1,.16.16.46.46,0,0,1,.05.2v2.41a10.43,10.43,0,0,1,2.87-2.37,6,6,0,0,1,2.81-.73,6.47,6.47,0,0,1,2.82.56,5.13,5.13,0,0,1,1.85,1.52,6.11,6.11,0,0,1,1,2.24,13.09,13.09,0,0,1,.31,3.09Z"/><path class="cls-2" d="M249.18,50.27a.39.39,0,0,1-.06.21.45.45,0,0,1-.18.15,1.09,1.09,0,0,1-.34.09,2.81,2.81,0,0,1-.55,0,2.77,2.77,0,0,1-.54,0,1.36,1.36,0,0,1-.35-.09.36.36,0,0,1-.17-.15.38.38,0,0,1-.05-.21V24.92a.35.35,0,0,1,.05-.2.33.33,0,0,1,.17-.16,1,1,0,0,1,.35-.1,4.06,4.06,0,0,1,.54,0,4.11,4.11,0,0,1,.55,0,.86.86,0,0,1,.34.1.4.4,0,0,1,.18.16.36.36,0,0,1,.06.2Z"/><path class="cls-2" d="M270.5,41.58a12.66,12.66,0,0,1-.53,3.74,8.41,8.41,0,0,1-1.57,3,7.08,7.08,0,0,1-2.6,2,8.74,8.74,0,0,1-3.63.71,9,9,0,0,1-3.49-.63,6.64,6.64,0,0,1-2.5-1.81,7.61,7.61,0,0,1-1.5-2.85,12.91,12.91,0,0,1-.5-3.78,12.71,12.71,0,0,1,.52-3.74,8.14,8.14,0,0,1,1.56-3,7.16,7.16,0,0,1,2.6-2,10.06,10.06,0,0,1,7.14-.07A6.52,6.52,0,0,1,268.49,35a8.07,8.07,0,0,1,1.5,2.85A12.91,12.91,0,0,1,270.5,41.58Zm-2.37.21a12.91,12.91,0,0,0-.28-2.76,6.83,6.83,0,0,0-.94-2.33,4.69,4.69,0,0,0-1.77-1.59,5.75,5.75,0,0,0-2.76-.6,5.84,5.84,0,0,0-2.64.55,4.85,4.85,0,0,0-1.81,1.51,6.59,6.59,0,0,0-1,2.29,11.11,11.11,0,0,0-.34,2.84,13.33,13.33,0,0,0,.28,2.79,6.7,6.7,0,0,0,.94,2.32,4.75,4.75,0,0,0,1.77,1.58,5.87,5.87,0,0,0,2.76.58,5.93,5.93,0,0,0,2.63-.54,5,5,0,0,0,1.82-1.51,6.4,6.4,0,0,0,1-2.27A11.27,11.27,0,0,0,268.13,41.79Z"/><path class="cls-2" d="M287.44,50.27a.36.36,0,0,1-.12.29.73.73,0,0,1-.32.15,2.47,2.47,0,0,1-.54,0,2.76,2.76,0,0,1-.54,0,.76.76,0,0,1-.35-.15.36.36,0,0,1-.12-.29v-1.9a8.62,8.62,0,0,1-2.53,1.92,6.47,6.47,0,0,1-2.87.68,7.77,7.77,0,0,1-2.4-.35,5.11,5.11,0,0,1-1.79-1,4.25,4.25,0,0,1-1.13-1.57,5.23,5.23,0,0,1-.39-2.07,4.72,4.72,0,0,1,2.23-4.19,8.15,8.15,0,0,1,2.58-1,14.42,14.42,0,0,1,3.35-.35h2.7V38.93A7.48,7.48,0,0,0,285,37a3.42,3.42,0,0,0-.74-1.4,3.09,3.09,0,0,0-1.31-.84,6,6,0,0,0-2-.28,7.08,7.08,0,0,0-2,.27,9.84,9.84,0,0,0-1.58.61c-.45.22-.82.43-1.12.61a1.49,1.49,0,0,1-.62.27.66.66,0,0,1-.21,0,.38.38,0,0,1-.16-.15.57.57,0,0,1-.1-.26c0-.11,0-.23,0-.38a2.65,2.65,0,0,1,.05-.63,1,1,0,0,1,.29-.47,3.62,3.62,0,0,1,.84-.56,10,10,0,0,1,1.38-.59,11.25,11.25,0,0,1,1.69-.44,9.14,9.14,0,0,1,1.8-.17,9,9,0,0,1,2.95.42,4.84,4.84,0,0,1,1.95,1.21,4.62,4.62,0,0,1,1.06,2,10,10,0,0,1,.32,2.62Zm-2.24-8h-3.1a9.85,9.85,0,0,0-2.37.25,5,5,0,0,0-1.69.71,3,3,0,0,0-1,1.13,3.31,3.31,0,0,0-.33,1.5,3,3,0,0,0,.94,2.34,3.64,3.64,0,0,0,2.62.88,4.77,4.77,0,0,0,2.49-.69,11.12,11.12,0,0,0,2.45-2.11Z"/><path class="cls-2" d="M307.37,50.27a.56.56,0,0,1,0,.23.42.42,0,0,1-.17.15,1.73,1.73,0,0,1-.31.08,3.18,3.18,0,0,1-.47,0,3.43,3.43,0,0,1-.5,0,1.65,1.65,0,0,1-.32-.08.49.49,0,0,1-.19-.15.45.45,0,0,1-.07-.23V47.83a12.16,12.16,0,0,1-2.8,2.3,6.18,6.18,0,0,1-3.16.84,6.42,6.42,0,0,1-3.14-.72,5.86,5.86,0,0,1-2.11-1.94,8.39,8.39,0,0,1-1.2-2.86,15.69,15.69,0,0,1-.37-3.49,14.68,14.68,0,0,1,.47-3.9,8.54,8.54,0,0,1,1.39-3,6.06,6.06,0,0,1,2.27-1.88,7.12,7.12,0,0,1,3.15-.66,6,6,0,0,1,2.82.68,10,10,0,0,1,2.52,2V25a.46.46,0,0,1,0-.21.35.35,0,0,1,.18-.15,1.26,1.26,0,0,1,.35-.09,2.66,2.66,0,0,1,.53,0,2.86,2.86,0,0,1,.56,0,1.18,1.18,0,0,1,.34.09.45.45,0,0,1,.18.15.46.46,0,0,1,.05.21ZM305.14,38a13.85,13.85,0,0,0-2.72-2.61,4.77,4.77,0,0,0-2.74-.9,3.86,3.86,0,0,0-2.22.62,4.81,4.81,0,0,0-1.5,1.63,7.77,7.77,0,0,0-.85,2.3,13.15,13.15,0,0,0-.26,2.59,15.54,15.54,0,0,0,.23,2.75,7.68,7.68,0,0,0,.77,2.37,4.54,4.54,0,0,0,1.44,1.68,3.88,3.88,0,0,0,2.26.63,4.53,4.53,0,0,0,1.32-.19,5.32,5.32,0,0,0,1.31-.62,9.39,9.39,0,0,0,1.4-1.12,18.2,18.2,0,0,0,1.56-1.7Z"/><path class="cls-2" d="M337.42,41.58a12.34,12.34,0,0,1-.53,3.74,8.41,8.41,0,0,1-1.57,3,7.08,7.08,0,0,1-2.6,2,8.74,8.74,0,0,1-3.63.71,9,9,0,0,1-3.49-.63,6.71,6.71,0,0,1-2.5-1.81,7.61,7.61,0,0,1-1.5-2.85,13.26,13.26,0,0,1-.5-3.78,12.71,12.71,0,0,1,.52-3.74,8.14,8.14,0,0,1,1.56-3,7.16,7.16,0,0,1,2.6-2,10.06,10.06,0,0,1,7.14-.07A6.52,6.52,0,0,1,335.41,35a8.07,8.07,0,0,1,1.5,2.85A12.91,12.91,0,0,1,337.42,41.58Zm-2.37.21a12.91,12.91,0,0,0-.28-2.76,6.83,6.83,0,0,0-.94-2.33,4.69,4.69,0,0,0-1.77-1.59,6.61,6.61,0,0,0-5.39,0,4.88,4.88,0,0,0-1.82,1.51,6.59,6.59,0,0,0-1,2.29,11.11,11.11,0,0,0-.34,2.84,13.33,13.33,0,0,0,.28,2.79,6.7,6.7,0,0,0,.94,2.32,4.75,4.75,0,0,0,1.77,1.58,6.77,6.77,0,0,0,5.39,0,5,5,0,0,0,1.82-1.51,6.4,6.4,0,0,0,1-2.27A11.27,11.27,0,0,0,335.05,41.79Z"/><path class="cls-2" d="M356.24,50.27a.5.5,0,0,1-.05.21.45.45,0,0,1-.18.15,1.18,1.18,0,0,1-.34.09,2.7,2.7,0,0,1-.54,0,2.81,2.81,0,0,1-.55,0,1.09,1.09,0,0,1-.34-.09.45.45,0,0,1-.18-.15.38.38,0,0,1-.05-.21V40.17a11,11,0,0,0-.25-2.56,5.17,5.17,0,0,0-.73-1.7,3.45,3.45,0,0,0-1.25-1.09,4,4,0,0,0-1.78-.38,4.41,4.41,0,0,0-2.59.92,13.84,13.84,0,0,0-2.73,2.71v12.2a.38.38,0,0,1-.24.36,1.1,1.1,0,0,1-.33.09,2.92,2.92,0,0,1-.56,0,2.83,2.83,0,0,1-.54,0,1.18,1.18,0,0,1-.34-.09.35.35,0,0,1-.18-.15.5.5,0,0,1-.05-.21v-17a.46.46,0,0,1,.05-.2.32.32,0,0,1,.18-.16.86.86,0,0,1,.33-.1,3.49,3.49,0,0,1,.51,0,3.79,3.79,0,0,1,.53,0,.8.8,0,0,1,.32.1.35.35,0,0,1,.16.16.46.46,0,0,1,.05.2v2.41a10.43,10.43,0,0,1,2.87-2.37,6,6,0,0,1,2.8-.73,6.49,6.49,0,0,1,2.83.56,5.13,5.13,0,0,1,1.85,1.52,6.11,6.11,0,0,1,1,2.24,13.09,13.09,0,0,1,.31,3.09Z"/><path class="cls-2" d="M379.35,49.25a2.72,2.72,0,0,1-.06.64.9.9,0,0,1-.21.39,1.38,1.38,0,0,1-.41.26,4.65,4.65,0,0,1-.63.21,5.73,5.73,0,0,1-.76.13,6.78,6.78,0,0,1-.77,0,5.89,5.89,0,0,1-2.14-.34,3.54,3.54,0,0,1-1.45-1,4.4,4.4,0,0,1-.82-1.74,10.74,10.74,0,0,1-.25-2.49V34.76h-2.54a.47.47,0,0,1-.41-.24,1.3,1.3,0,0,1-.15-.7,2.63,2.63,0,0,1,0-.43,1,1,0,0,1,.12-.3.52.52,0,0,1,.18-.18.56.56,0,0,1,.23,0h2.54V28.68a.46.46,0,0,1,0-.2.32.32,0,0,1,.18-.16.91.91,0,0,1,.34-.1,4.16,4.16,0,0,1,.54,0,4.11,4.11,0,0,1,.55,0,.86.86,0,0,1,.34.1.4.4,0,0,1,.18.16.36.36,0,0,1,.06.2v4.18h4.7a.56.56,0,0,1,.23,0,.52.52,0,0,1,.18.18.82.82,0,0,1,.11.3,1.8,1.8,0,0,1,0,.43,1.21,1.21,0,0,1-.16.7.46.46,0,0,1-.4.24h-4.7V45a6.27,6.27,0,0,0,.55,3,2.1,2.1,0,0,0,2,1,3.43,3.43,0,0,0,.82-.09c.25-.07.46-.14.65-.21s.35-.14.48-.21a.86.86,0,0,1,.35-.09.33.33,0,0,1,.17,0,.24.24,0,0,1,.12.14.81.81,0,0,1,.07.26A2.25,2.25,0,0,1,379.35,49.25Z"/><path class="cls-2" d="M397.61,50.27a.39.39,0,0,1-.06.21.36.36,0,0,1-.17.15,1.28,1.28,0,0,1-.34.09,3.73,3.73,0,0,1-1.09,0,1.09,1.09,0,0,1-.34-.09.45.45,0,0,1-.18-.15.39.39,0,0,1-.06-.21V40.17a11.1,11.1,0,0,0-.24-2.56,5.17,5.17,0,0,0-.73-1.7,3.4,3.4,0,0,0-1.26-1.09,3.94,3.94,0,0,0-1.77-.38,4.43,4.43,0,0,0-2.6.92,14.09,14.09,0,0,0-2.72,2.71v12.2a.39.39,0,0,1-.06.21.45.45,0,0,1-.18.15,1.09,1.09,0,0,1-.34.09,3.73,3.73,0,0,1-1.09,0,1.36,1.36,0,0,1-.35-.09.36.36,0,0,1-.17-.15.38.38,0,0,1-.05-.21V24.92a.35.35,0,0,1,.05-.2.33.33,0,0,1,.17-.16,1,1,0,0,1,.35-.1,4.16,4.16,0,0,1,.54,0,4.11,4.11,0,0,1,.55,0,.86.86,0,0,1,.34.1.4.4,0,0,1,.18.16.36.36,0,0,1,.06.2V35.55a10,10,0,0,1,2.78-2.27,6,6,0,0,1,2.78-.72,6.41,6.41,0,0,1,2.82.56,5.05,5.05,0,0,1,1.85,1.52,6.13,6.13,0,0,1,1,2.24,13.09,13.09,0,0,1,.31,3.09Z"/><path class="cls-2" d="M417.69,40.89a1.09,1.09,0,0,1-.35.93,1.2,1.2,0,0,1-.7.25H405a12,12,0,0,0,.31,2.86,5.83,5.83,0,0,0,1,2.19,4.59,4.59,0,0,0,1.86,1.4,7.18,7.18,0,0,0,2.83.49,9.82,9.82,0,0,0,2.12-.21,11.26,11.26,0,0,0,1.63-.46c.45-.17.83-.32,1.12-.46a1.75,1.75,0,0,1,.63-.2.36.36,0,0,1,.21,0,.45.45,0,0,1,.15.18,1.14,1.14,0,0,1,.09.31,3.25,3.25,0,0,1,0,.47,2,2,0,0,1,0,.25c0,.09,0,.16,0,.23a.88.88,0,0,1-.09.2.77.77,0,0,1-.15.19,2.56,2.56,0,0,1-.58.32,7.85,7.85,0,0,1-1.28.47,17.24,17.24,0,0,1-1.83.43,13.29,13.29,0,0,1-2.25.19,9.55,9.55,0,0,1-3.5-.6,6.44,6.44,0,0,1-2.55-1.75,7.53,7.53,0,0,1-1.57-2.86,13.24,13.24,0,0,1-.54-4,12.51,12.51,0,0,1,.56-3.87A8.48,8.48,0,0,1,404.77,35a6.87,6.87,0,0,1,2.5-1.82,8.07,8.07,0,0,1,3.24-.63,7.54,7.54,0,0,1,3.27.64A6.19,6.19,0,0,1,416,34.92a6.94,6.94,0,0,1,1.28,2.51,10.94,10.94,0,0,1,.4,3Zm-2.31-.66A6.11,6.11,0,0,0,414.14,36a4.69,4.69,0,0,0-3.78-1.52,4.83,4.83,0,0,0-3.88,1.74,5.61,5.61,0,0,0-1,1.84,7.87,7.87,0,0,0-.41,2.17Z"/><path class="cls-2" d="M226,87a15.81,15.81,0,0,0-2.22-5.34,11.48,11.48,0,0,0-4.07-3.7,12.4,12.4,0,0,0-6-1.35,12.56,12.56,0,0,0-3,.36,11.74,11.74,0,0,0-2.81,1.11,17.75,17.75,0,0,0-2.67,1.84c-.35.29-.71.61-1.07.94V76.61H198.6v45h5.86V107.41c.26.24.52.45.77.66a15.84,15.84,0,0,0,2.37,1.59,11,11,0,0,0,2.49,1,11.84,11.84,0,0,0,2.71.31,13.57,13.57,0,0,0,5.95-1.27,12.21,12.21,0,0,0,4.4-3.61,16.21,16.21,0,0,0,2.64-5.56,27.34,27.34,0,0,0,.88-7.17A29.09,29.09,0,0,0,226,87Zm-5.84,11.3a13.29,13.29,0,0,1-1.4,3.8,7.68,7.68,0,0,1-2.37,2.59,5.83,5.83,0,0,1-3.39,1,7.12,7.12,0,0,1-4.2-1.43,24.1,24.1,0,0,1-4.34-4.18V87.67A26,26,0,0,1,206.87,85a16.21,16.21,0,0,1,2.34-1.86,8.31,8.31,0,0,1,2.09-1,7.54,7.54,0,0,1,2.06-.29,5.87,5.87,0,0,1,3.41.92A7,7,0,0,1,219,85.39a13,13,0,0,1,1.24,3.87,27.48,27.48,0,0,1,.39,4.69A21.36,21.36,0,0,1,220.16,98.3Z"/><path class="cls-2" d="M261.22,87A15.81,15.81,0,0,0,259,81.66a11.45,11.45,0,0,0-4.06-3.7,13.67,13.67,0,0,0-9-1,11.74,11.74,0,0,0-2.81,1.11,17.19,17.19,0,0,0-2.66,1.84c-.35.29-.71.61-1.08.94V76.61h-5.53v45h5.86V107.41c.26.24.52.45.77.66a16.36,16.36,0,0,0,2.37,1.59,11,11,0,0,0,2.49,1,11.84,11.84,0,0,0,2.71.31,13.54,13.54,0,0,0,5.95-1.27,12.21,12.21,0,0,0,4.4-3.61,16.21,16.21,0,0,0,2.64-5.56,27.34,27.34,0,0,0,.88-7.17A28.49,28.49,0,0,0,261.22,87Zm-5.84,11.3a13.29,13.29,0,0,1-1.4,3.8,7.68,7.68,0,0,1-2.37,2.59,5.83,5.83,0,0,1-3.39,1,7.14,7.14,0,0,1-4.2-1.43,24.1,24.1,0,0,1-4.34-4.18V87.67A26,26,0,0,1,242.09,85a16.21,16.21,0,0,1,2.34-1.86,8.31,8.31,0,0,1,2.09-1,7.55,7.55,0,0,1,2.07-.29,5.84,5.84,0,0,1,3.4.92,7,7,0,0,1,2.22,2.57,13,13,0,0,1,1.24,3.87,27.48,27.48,0,0,1,.39,4.69A21.36,21.36,0,0,1,255.38,98.3Z"/><path class="cls-2" d="M361.34,81.2a12.44,12.44,0,0,0-4.75-3.43,17.07,17.07,0,0,0-6.51-1.16,16.78,16.78,0,0,0-6.81,1.3,13.59,13.59,0,0,0-4.93,3.69,15.53,15.53,0,0,0-2.93,5.55,23.82,23.82,0,0,0-1,6.87,24.27,24.27,0,0,0,.91,6.92,14.6,14.6,0,0,0,2.84,5.37,12.77,12.77,0,0,0,4.76,3.43,16.65,16.65,0,0,0,6.51,1.19,16.42,16.42,0,0,0,6.79-1.33,13.49,13.49,0,0,0,4.92-3.72,16.19,16.19,0,0,0,2.95-5.56,23.47,23.47,0,0,0,1-6.87,23.9,23.9,0,0,0-.93-6.9A14.8,14.8,0,0,0,361.34,81.2ZM359,93.82a19.06,19.06,0,0,1-.57,4.79,10.56,10.56,0,0,1-1.68,3.68,7.77,7.77,0,0,1-2.84,2.35,11,11,0,0,1-8.64,0,7.29,7.29,0,0,1-2.75-2.46A10.73,10.73,0,0,1,341,98.37a22.48,22.48,0,0,1-.48-4.72,18.94,18.94,0,0,1,.57-4.76,10.83,10.83,0,0,1,1.68-3.7,7.6,7.6,0,0,1,2.84-2.36,10.8,10.8,0,0,1,8.63.06,7.49,7.49,0,0,1,2.76,2.5,10.81,10.81,0,0,1,1.52,3.76A22,22,0,0,1,359,93.82Z"/><path class="cls-2" d="M178.41,67h-7l-14.51,43.89h5.94l3.23-12.58h17.45l3.35,12.58h6ZM168,93l6.76-19.26L181.65,93Z"/><path class="cls-2" d="M307.75,93.06a11.76,11.76,0,0,0-2.49-3.49A16.66,16.66,0,0,0,301.84,87c-1.22-.68-2.48-1.33-3.74-1.92s-2.47-1.17-3.66-1.75a17.66,17.66,0,0,1-3.07-1.87,8.17,8.17,0,0,1-2-2.25,5.53,5.53,0,0,1-.73-2.91,6,6,0,0,1,.42-2.23,4.74,4.74,0,0,1,1.21-1.79,5.9,5.9,0,0,1,2.08-1.24,9.15,9.15,0,0,1,3.08-.47,11.08,11.08,0,0,1,3.26.44,15.37,15.37,0,0,1,2.52,1c.72.39,1.33.73,1.8,1L305.39,68a7,7,0,0,0-1.52-1,16.76,16.76,0,0,0-2.36-1,22.71,22.71,0,0,0-2.76-.72,16.32,16.32,0,0,0-2.93-.28,17,17,0,0,0-5.27.78,12.33,12.33,0,0,0-4.22,2.28,10.53,10.53,0,0,0-2.77,3.68,11.64,11.64,0,0,0-1,4.85,11.36,11.36,0,0,0,.95,4.8A11.72,11.72,0,0,0,286,85a16.63,16.63,0,0,0,3.39,2.55c1.21.69,2.46,1.34,3.73,1.94s2.46,1.16,3.64,1.74a18.1,18.1,0,0,1,3,1.86,8.07,8.07,0,0,1,2,2.23,5.57,5.57,0,0,1,.73,2.92,7.28,7.28,0,0,1-.6,3,6.08,6.08,0,0,1-1.64,2.19,7.81,7.81,0,0,1-2.6,1.4,11.1,11.1,0,0,1-3.41.5,13.74,13.74,0,0,1-4.07-.54,19.55,19.55,0,0,1-3.06-1.2,19.33,19.33,0,0,1-2.08-1.19l-1.2,6.06a18.08,18.08,0,0,0,2.53,1.14,23.3,23.3,0,0,0,3.38,1,20.36,20.36,0,0,0,4.07.4,19,19,0,0,0,5.86-.88,13.57,13.57,0,0,0,4.72-2.58,11.81,11.81,0,0,0,3.14-4.15,13.31,13.31,0,0,0,1.11-5.5A11.2,11.2,0,0,0,307.75,93.06Z"/><path class="cls-2" d="M327.94,105.11a7.67,7.67,0,0,1-1,.33,5.47,5.47,0,0,1-1.21.13c-1.8,0-2.41-.74-2.71-1.29a10.24,10.24,0,0,1-.86-4.74V82.39h7.12V77.14h-7.12v-6.4l-5.86,2.58v3.82h-3.17v5.25h3.17v17.68a19.58,19.58,0,0,0,.48,4.6,8.47,8.47,0,0,0,1.63,3.44,6.89,6.89,0,0,0,2.94,2.09,11.56,11.56,0,0,0,4.12.66,12.33,12.33,0,0,0,1.47-.09,12.15,12.15,0,0,0,1.43-.25,6.63,6.63,0,0,0,1.28-.42l-.9-5.33Z"/><path class="cls-2" d="M385.31,76.61h-.24a9.2,9.2,0,0,0-2.17.25,7.32,7.32,0,0,0-2.23,1,13.13,13.13,0,0,0-2.26,1.95c-.23.25-.48.52-.73.83v-4H372v34.25h5.85V88.76c.77-1.21,1.48-2.26,2.11-3.11a14.46,14.46,0,0,1,1.86-2.09,6.19,6.19,0,0,1,1.55-1.07,3.36,3.36,0,0,1,1.37-.3l.45,0,1,.08V76.63Z"/><path class="cls-2" d="M414.62,103.49l-.43.18c-.49.23-1.13.5-1.91.78a19.27,19.27,0,0,1-2.74.78,16.39,16.39,0,0,1-3.53.34,11.79,11.79,0,0,1-4.59-.78,7.19,7.19,0,0,1-2.9-2.18,9.09,9.09,0,0,1-1.63-3.49,19.42,19.42,0,0,1-.5-3.85h19.45a3.08,3.08,0,0,0,1.78-.62,2.79,2.79,0,0,0,1-2.42v-.8a20.21,20.21,0,0,0-.75-5.55,13.1,13.1,0,0,0-2.43-4.76,12,12,0,0,0-4.25-3.3,14.39,14.39,0,0,0-6.17-1.21A15.38,15.38,0,0,0,399,77.79a13,13,0,0,0-4.73,3.47,15.47,15.47,0,0,0-3,5.44,23.14,23.14,0,0,0-1,7.12,24.3,24.3,0,0,0,1,7.27,14.46,14.46,0,0,0,3,5.4,12.64,12.64,0,0,0,4.87,3.33,17.82,17.82,0,0,0,6.5,1.11,23.38,23.38,0,0,0,4.13-.35,29.09,29.09,0,0,0,3.33-.77q.92-.27,1.62-.54ZM397.05,87.56a9,9,0,0,1,1.63-2.92,7.82,7.82,0,0,1,2.57-2,8,8,0,0,1,3.53-.74c2.65,0,4.58.76,5.93,2.34a9.34,9.34,0,0,1,2,5.87h-16.2A12.78,12.78,0,0,1,397.05,87.56Z"/></svg>