<svg id="Layer_1" data-name="Layer 1" xmlns="http://www.w3.org/2000/svg" viewBox="0 0 486 146"><defs><style>.cls-1{fill:#fff;}.cls-2{fill:#00ef6d;}.cls-3{fill:#ff3147;}.cls-4{fill:#ffca00;}.cls-5{fill:#00d2ff;}.cls-6{fill:#121212;}</style></defs><rect class="cls-1" x="3.6" y="1" width="478.79" height="144" rx="27.66"/><path class="cls-2" d="M120.64,59.76,107.75,72.57,69.91,34a6.37,6.37,0,0,1,6.56,0Z"/><path class="cls-3" d="M121,86.05,76.47,112a6.42,6.42,0,0,1-7.7-.91l39-38.52Z"/><path class="cls-4" d="M133.8,78.55,121.05,86l-.1.06-13.2-13.48,12.89-12.81.09.06,13.07,7.63A6.42,6.42,0,0,1,133.8,78.55Z"/><path class="cls-5" d="M68.77,111.09a.3.3,0,0,0-.08-.08,6.35,6.35,0,0,1-1.89-4.56V39.55a6.38,6.38,0,0,1,3-5.45l.09-.06,37.84,38.53Z"/><path class="cls-6" d="M209.8,82.11H191.3v5.13h13A13.46,13.46,0,1,1,200.4,73.8L204,70.18a18.57,18.57,0,1,0,5.84,13.52C209.87,83.16,209.85,82.63,209.8,82.11Z"/><path class="cls-6" d="M224.42,78.27a12,12,0,1,0,11.87,12A11.92,11.92,0,0,0,224.42,78.27Zm0,19.16a7,7,0,1,1,6.5-7A6.77,6.77,0,0,1,224.42,97.43Z"/><path class="cls-6" d="M250.84,78.27a12,12,0,1,0,11.87,12A11.92,11.92,0,0,0,250.84,78.27Zm0,19.16a7,7,0,1,1,6.5-7A6.77,6.77,0,0,1,250.84,97.43Z"/><rect class="cls-6" x="290.04" y="65.13" width="5.13" height="37.52"/><path class="cls-6" d="M316.24,93.29a7,7,0,0,1-9.09,3.34,6.87,6.87,0,0,1-2.72-2.12l17.41-6.82-.27-.9a9.4,9.4,0,0,0-.34-1,12.1,12.1,0,1,0-.33,9.6l.45-1-4.68-2ZM314.63,85,303,89.58a7,7,0,0,1,4.42-5.87A7,7,0,0,1,314.63,85Z"/><path class="cls-6" d="M282.25,78.27v2.11a10,10,0,0,0-6.1-2.11c-5.95,0-10.77,5.35-10.77,12s4.82,12,10.77,12a10,10,0,0,0,6.1-2.11v2.58a5.64,5.64,0,0,1-5.9,5.58,6.51,6.51,0,0,1-6.2-4.33l-4.65,2.17s1.75,6.82,11.31,6.82a9.73,9.73,0,0,0,9.2-5.76,13.59,13.59,0,0,0,1.36-6V78.27Zm-6.1,19.16c-3.26,0-5.89-3.14-5.89-7s2.63-7,5.89-7,5.89,3.14,5.89,7S279.4,97.43,276.15,97.43Z"/><rect class="cls-6" x="339.6" y="65.13" width="5.13" height="37.52"/><path class="cls-6" d="M351.9,65.13v5.12a7,7,0,0,1,0,14V89a12,12,0,0,0,0-23.9Z"/><rect class="cls-6" x="343.29" y="65.13" width="8.61" height="5.13"/><rect class="cls-6" x="343.29" y="84.29" width="8.61" height="4.75"/><rect class="cls-6" x="366.44" y="65.13" width="5.13" height="37.52"/><path class="cls-6" d="M388.32,99.37l.62-.67v3.59h4.32V86.8a12.14,12.14,0,0,0-.52-3.74,5.55,5.55,0,0,0-1.59-2.49,6.92,6.92,0,0,0-2.82-1.45,16.36,16.36,0,0,0-4.26-.49,16.07,16.07,0,0,0-2.71.23,17,17,0,0,0-2.43.58,13.82,13.82,0,0,0-1.72.66l.27,4.06c.32-.16.67-.33,1.07-.5a15.47,15.47,0,0,1,2.17-.77,10.12,10.12,0,0,1,2.82-.35,7.21,7.21,0,0,1,2.06.25,3.26,3.26,0,0,1,1.42.85,3.46,3.46,0,0,1,.76,1.43A7.08,7.08,0,0,1,388,87v1.67h-2.47a25.52,25.52,0,0,0-5,.43A10.6,10.6,0,0,0,377,90.34a5.68,5.68,0,0,0-2.08,2.17,6.61,6.61,0,0,0-.7,3.11,7.06,7.06,0,0,0,.56,2.91,5.73,5.73,0,0,0,1.53,2.06,6.81,6.81,0,0,0,2.37,1.26,10.19,10.19,0,0,0,3.06.44,8.51,8.51,0,0,0,3.64-.77A9.52,9.52,0,0,0,388.32,99.37ZM385.63,98a4.83,4.83,0,0,1-2.55.71,3.78,3.78,0,0,1-2.63-.87,3.1,3.1,0,0,1-1-2.4,3.5,3.5,0,0,1,.34-1.58,3.08,3.08,0,0,1,1.08-1.2,5.24,5.24,0,0,1,1.82-.7,12.93,12.93,0,0,1,2.6-.23H388V95.9l-.09.11A10.26,10.26,0,0,1,385.63,98Z"/><polygon class="cls-6" points="413.61 78.67 409.87 87.33 407.56 92.66 406 89.05 401.51 78.67 395.93 78.67 403.21 95.51 404.83 99.26 400.61 109.59 406.19 109.59 409.87 100.25 412.66 93.79 419.2 78.67 413.61 78.67"/><path class="cls-6" d="M203.84,51.16a1.69,1.69,0,0,1,0,.33.85.85,0,0,1-.09.24.45.45,0,0,1-.16.15.29.29,0,0,1-.18,0h-8.7a.91.91,0,0,1-.53-.19.83.83,0,0,1-.28-.71V34.26a.83.83,0,0,1,.28-.71.91.91,0,0,1,.53-.19h8.57a.32.32,0,0,1,.19,0,.41.41,0,0,1,.14.15.73.73,0,0,1,.09.25,3.49,3.49,0,0,1,0,.35,3.25,3.25,0,0,1,0,.33.75.75,0,0,1-.09.24.47.47,0,0,1-.14.14.41.41,0,0,1-.19.05h-7.62v6.53h6.57a.42.42,0,0,1,.2,0,.43.43,0,0,1,.15.15,1,1,0,0,1,.08.24,1.83,1.83,0,0,1,0,.35,1.61,1.61,0,0,1,0,.33.93.93,0,0,1-.08.22.37.37,0,0,1-.15.13.42.42,0,0,1-.2,0h-6.57v7.41h7.75a.29.29,0,0,1,.18.05.52.52,0,0,1,.16.14.73.73,0,0,1,.09.25A1.75,1.75,0,0,1,203.84,51.16Z"/><path class="cls-6" d="M219.5,34.16a1.69,1.69,0,0,1,0,.33,1.12,1.12,0,0,1-.08.24.4.4,0,0,1-.15.14.41.41,0,0,1-.19.05h-5.54V51.65a.26.26,0,0,1,0,.15.33.33,0,0,1-.14.12,1.26,1.26,0,0,1-.28.07,2.37,2.37,0,0,1-.41,0,2.5,2.5,0,0,1-.42,0,1.31,1.31,0,0,1-.27-.07.24.24,0,0,1-.14-.12.27.27,0,0,1-.05-.15V34.92h-5.54a.36.36,0,0,1-.19-.05.38.38,0,0,1-.14-.14.75.75,0,0,1-.09-.24,1.72,1.72,0,0,1,0-.33,1.89,1.89,0,0,1,0-.35.73.73,0,0,1,.09-.25.34.34,0,0,1,.14-.15.29.29,0,0,1,.19,0h12.83a.32.32,0,0,1,.19,0,.36.36,0,0,1,.15.15,1.05,1.05,0,0,1,.08.25A1.83,1.83,0,0,1,219.5,34.16Z"/><path class="cls-6" d="M230.86,51.65a.27.27,0,0,1-.05.15.28.28,0,0,1-.14.12,1.31,1.31,0,0,1-.27.07,2.42,2.42,0,0,1-.42,0,2.58,2.58,0,0,1-.42,0,1.31,1.31,0,0,1-.27-.07.28.28,0,0,1-.14-.12.27.27,0,0,1-.05-.15v-18a.33.33,0,0,1,.05-.16.5.5,0,0,1,.16-.11,1.26,1.26,0,0,1,.28-.07,2.13,2.13,0,0,1,.39,0,2.42,2.42,0,0,1,.42,0,1.31,1.31,0,0,1,.27.07.33.33,0,0,1,.14.11.33.33,0,0,1,.05.16Z"/><path class="cls-6" d="M247.54,34.16a1.69,1.69,0,0,1,0,.33.75.75,0,0,1-.09.24.38.38,0,0,1-.14.14.41.41,0,0,1-.19.05h-5.54V51.65a.26.26,0,0,1,0,.15.31.31,0,0,1-.15.12,1,1,0,0,1-.27.07,2.37,2.37,0,0,1-.41,0,2.42,2.42,0,0,1-.42,0,1,1,0,0,1-.27-.07.31.31,0,0,1-.15-.12.26.26,0,0,1,0-.15V34.92h-5.54a.42.42,0,0,1-.2-.05.44.44,0,0,1-.13-.14.75.75,0,0,1-.09-.24,1.69,1.69,0,0,1,0-.33,1.83,1.83,0,0,1,0-.35.73.73,0,0,1,.09-.25.39.39,0,0,1,.13-.15.33.33,0,0,1,.2,0h12.83a.32.32,0,0,1,.19,0,.34.34,0,0,1,.14.15.73.73,0,0,1,.09.25A1.83,1.83,0,0,1,247.54,34.16Z"/><path class="cls-6" d="M272.09,42.43a14.86,14.86,0,0,1-.51,4,8.59,8.59,0,0,1-1.53,3.07,6.86,6.86,0,0,1-2.57,2,8.86,8.86,0,0,1-3.62.69,8.69,8.69,0,0,1-3.55-.66,6.13,6.13,0,0,1-2.44-1.86,7.88,7.88,0,0,1-1.41-3,15.89,15.89,0,0,1-.45-3.95,14.4,14.4,0,0,1,.5-4,8.1,8.1,0,0,1,1.53-3,6.84,6.84,0,0,1,2.57-2,9.82,9.82,0,0,1,7.13,0,6.34,6.34,0,0,1,2.44,1.85,7.81,7.81,0,0,1,1.44,2.93A14.92,14.92,0,0,1,272.09,42.43Zm-1.87.16a14.55,14.55,0,0,0-.31-3.1,7,7,0,0,0-1-2.51A5,5,0,0,0,267,35.3a6.21,6.21,0,0,0-2.91-.61,6,6,0,0,0-2.91.64,5.4,5.4,0,0,0-1.92,1.72,7,7,0,0,0-1.06,2.51,13.4,13.4,0,0,0-.33,3,15.6,15.6,0,0,0,.3,3.15,7.06,7.06,0,0,0,1,2.53A4.81,4.81,0,0,0,261.05,50a6.28,6.28,0,0,0,2.94.61,6.09,6.09,0,0,0,2.94-.65,5.36,5.36,0,0,0,1.93-1.76,7.51,7.51,0,0,0,1-2.54A14.14,14.14,0,0,0,270.22,42.59Z"/><path class="cls-6" d="M289.72,51.09a1.1,1.1,0,0,1-.08.43,1.18,1.18,0,0,1-.2.28.85.85,0,0,1-.28.15,1,1,0,0,1-.28,0h-.36a1.72,1.72,0,0,1-.52-.07,1.39,1.39,0,0,1-.46-.25,2.3,2.3,0,0,1-.44-.48,7.19,7.19,0,0,1-.5-.78l-6.55-11.6c-.32-.56-.65-1.14-1-1.74s-.64-1.18-.94-1.75h0c0,.7,0,1.42,0,2.15V51.65a.26.26,0,0,1,0,.15.31.31,0,0,1-.15.12,1.05,1.05,0,0,1-.26.07,2.46,2.46,0,0,1-.43,0,2.37,2.37,0,0,1-.41,0,1,1,0,0,1-.27-.07.31.31,0,0,1-.15-.12.26.26,0,0,1,0-.15V34.26a.83.83,0,0,1,.27-.71.91.91,0,0,1,.53-.19h.72a2.32,2.32,0,0,1,.57,0,1.17,1.17,0,0,1,.42.2,1.68,1.68,0,0,1,.37.38c.12.17.25.39.39.64l5,8.89c.32.55.62,1.09.9,1.6s.56,1,.82,1.51l.8,1.46c.26.47.53,1,.78,1.45h0c0-.81,0-1.65,0-2.52V33.7a.3.3,0,0,1,.05-.16.28.28,0,0,1,.14-.12.88.88,0,0,1,.27-.07,2.56,2.56,0,0,1,.42,0,2.42,2.42,0,0,1,.4,0,.74.74,0,0,1,.27.07.4.4,0,0,1,.16.12.3.3,0,0,1,.05.16Z"/><path class="cls-6" d="M172.73,42.63a9.09,9.09,0,0,0,18.18,0c0-.13,0-.26,0-.38h-8.65V44H189l-.14.55A7.32,7.32,0,1,1,186.47,37l1.25-1.25a9.09,9.09,0,0,0-15,6.91Z"/></svg>